<?xml version="1.0" encoding="UTF-8"?>
<svg viewBox="0 0 90 90" xmlns="http://www.w3.org/2000/svg">
 <g transform="matrix(1.8186 0 0 1.8186 -540.22 -157.84)">
  <path d="m332.19949,114.4428c.0206-.0563.0449-.0763.0622-.12871 .0289-.0901.0396-.18507.056-.27982 .0225-.12955.048-.25943.07-.39175 .0233-.13938.0412-.28509.07-.41974s.0661-.2584.11193-.37776c.0659-.17238.12089-.32723.1679-.4757 .0754-.23817.14656-.52393.19588-.82547 .0371-.22318.0706-.46134.028-.69956-.0239-.14838-.0362-.27802-.17431-.3562-.0514-.0265-.11365-.0418-.16789-.042-.0904-.00042-.173.0233-.25184.056-.10064.0408-.19843.10859-.27983.16789-.0688.0501-.17215.15201-.24485.19168l-.19727.0265c.0164-.0457-.0198-.13567-.008-.19028 .15624-.7529.43271-3.30523.42022-4.55471-.0286-2.84838.82439-3.98095-1.23451-6.46951-.51762-.62564-1.30513-1.35936-1.98115-1.82586 .35595.0929.63262.13429 1.03253.33159-.87942-.71055-1.66002-1.09837-2.31973-1.43829 .31753.049.72287.15177 1.05354.20428-2.1322-1.05399-3.58487-1.17774-4.97943-1.16825l-.35259.0378c-.61354.004-.86417.037-1.30395.13012-1.37477-.0615-3.30514-.23174-5.24805.71073 .27496-.0154.50794-.0258.72754-.028-.87015.40555-1.83911.92895-2.92555,2.10426 .24587-.1349.46139-.25148.67157-.34977-.8297.78364-1.75227,2.02437-2.19663,3.15922-.48723,1.24437-.38007,6.72929-.19029,7.68115 .17506.87796.007,1.44778-.0118,1.52403-.007-.004-.007-.0108-.014-.014-.12528-.0602-.32044-.1282-.47118-.0607-.14958.0792-.20383.21917-.23316.36818-.0533.2462.007.47841.056.69947 .0782.36885.17123.72798.25644,1.00745 .0311.10185.0699.20414.10733.3218s.0704.23968.0886.37307 .0259.28435.0373.42443c.0103.12903.007.24529.0186.37306 .008.0937.01.18868.0326.27983 .0248.0954.0629.17453.11114.25008l.014.028c.01.0776.0916.18691.093.35623 .001.13117.0466.28612.0329.43802s-.0353.3009-.056.44342c-.0152.10287-.027.20095-.0301.28952-.003.0631.005.13788.014.20986 .02.16741.0736.32179.17544.4768 .0597.0922.0261.0978.12482.14603 .0844.0403.1606.0691.24324.0796 .10743.0139.21604.0284.30351.056 .11964.0377.2078.0641.30159.13776 .12968.10183.2396.17222.42638.30919 .0149.047.0457.0836.061.13449 .0521.17312.13286.38642.22386.58762 .13846.30576.33423.65182.51801.97029l.007.14885c.69754,3.10162.19904,5.64294-1.14562,7.57695 2.31863,4.74349 5.96881,4.31468 9.19142,4.47228 3.16039.15455 7.94813-2.61329 7.62596-4.50026-1.08382-1.83737-1.29706-4.41893-.99882-6.69442 .084-.61975.14968-.86364.29927-1.18 .1373-.30441.2292-.47443.35833-.742 .17824-.37027.27413-.74685.33579-1.06332 .009-.0447.02-.10088.0383-.15751 .0545-.0386.12279-.0733.15546-.0943 .0963-.062.23859-.14628.40575-.20986 .0495-.0186.10064-.0359.15391-.07 .0571-.0377.10277-.0991.1399-.1539 .10192-.14795.16805-.31639.19588-.4897s.0547-.3092.0495-.43586c-.00045-.0148.00044-.0265 0-.042-.007-.16399-.0532-.37454-.0356-.57364s.0587-.3918.098-.53167 .0656-.17752.0917-.24905l-1e-005,2e-005v1e-005h-2e-005 4e-005-2e-005z" fill="#e4be81"/>
  <path d="m322.05937,117.01259c-.13589-.3981-.76439-.63916-1.03738-.24244-.19787.28755.29809.40159.47454.23658 .12577-.11762.36803-.12725.56284.006z"/>
  <path d="m323.26721,116.98869c.009-.25832.55352-.78477.87382-.50118 .29041.25712-.072.5446-.30824.45777-.20826-.0765-.31223-.10519-.56558.0434z"/>
  <path d="m321.7767,119.37486c.30453.0152.65992.21915.99707.20868s1.03755-.45329 1.39143-.37218 1.20443.71178 2.06148.25119c.31404-.16877.21941.23376.11089.295-.42452.23953-1.61279-.0836-2.12251-.1473s-.89465.21006-1.43862.26064-.47636-.18945-1.07303-.19533c-.62751-.006-1.98856.52955-2.24683.35794s-.17615-.43197.20831-.2553c.47029.2161 1.36321-.44078 2.11181-.40334z"/>
  <path d="m322.07259,122.58015c-.0338.38135-.40154,1.04804-1.30437,1.13013-.33827.0308-1.11382-.14804-1.82482-.55629-.34095-.19578-.38769.003-.13239.215 1.58336,1.31739 3.12344,1.48653 4.16619,1.48653 1.05708,0 3.23343-.32674 4.41217-1.67579 .36076-.41289.27634-.61177-.20554-.21126-.4939.41048-1.14854.44576-1.61173.501-.64772.0772-1.61204-.37901-1.65141-1.1645-.0158-.31652-.16991-.66028-.29856-.76918-.39044.15555-.90933.22198-1.23323.041-.20797.32258-.2786.57853-.31631,1.0034z"/>
  <path d="m318.15074,112.40428c.18614-.001.64994-.15562.7598-.25004 .20091-.17271.0433-.11594-.0403-.0512-.17138.13286-.62985.19546-.74899.18783-.15481-.01-.45737-.003-.80149-.10367-.12874-.038-.19617-.0714-.18347-.0493s.0674.0711.1914.11554c.32705.11724.68271.15186.82305.15075z"/>
  <path d="m316.44526,111.80965c-.004.0131.0336.0616.056.042 .25887-.17215.55456-.289.86745-.36376-.0231.0528-.0403.10649-.042.16789-.007.25722.1905.46851.44772.47569s.46852-.19049.4757-.44771c.003-.0978-.0207-.18947-.07-.26583 .25031.0181.49479.0633.74153.13991 .27231.0845.55478.27429.82548.36377 .004-.009-.0339-.095-.12592-.13992-.55087-.37204-1.05679-.56689-1.81885-.55962-.57897.005-.95968.30576-1.35717.58763zm1.60898-.37776c.0453-.0102.096.04.11193.11193s-.0105.14365-.056.1539-.096-.04-.11193-.11192 .0106-.14365.056-.15391zm.056.34978c.028.0104.0443.0541.028.0979s-.056.0803-.0839.07-.0303-.0541-.014-.0979 .042-.0803.07-.07h-2e-005z"/>
  <path d="m323.55341,95.66974c-.61355.004-1.14122.0607-1.581.1539-1.4693-.17965-3.78526-.10325-5.63844.95141 .27496-.0154.50794-.0259.72754-.028-.87015.40554-1.8657,1.10525-2.95214,2.28056 .24588-.1349.47538-.25148.68557-.34978-.82971.78364-1.50041,1.73333-1.94478,2.86819-.48723,1.24437-.32969,6.72929-.13991,7.68115 .17506.87797.0608,1.39282.042,1.46908-.007-.004-.007-.0107-.014-.014-.12529-.0602-.29696-.10941-.44772-.042-.14958.0792-.20853.24274-.23784.39175-.0533.24621.007.4925.056.71355 .0782.36887.18062.7139.26583.99338 .0311.10185.0606.21812.0979.33579s.0657.24438.0839.37776 .0306.26566.042.40574c.0103.12904.0167.26399.028.39175 .008.0937.0189.18869.042.27983 .0248.0954.0637.17629.11193.25184 .004.006.0102.008.014.014 .01.0776.0721.19445.0737.36377 .001.13118.0422.28183.0286.43373s-.0353.3052-.056.44772c-.0152.10287-.025.20525-.028.29381-.003.0631.006.12389.014.19588 .02.16741.0435.3243.14534.47931 .0597.0922.1197.13295.21835.18121 .0844.0403.21674.0838.29938.0943 .10742.0139.22033.0284.30779.056 .11965.0377.20301.0851.26584.12592-.0595-.0451-.14999-.10782-.26584-.1539-.0883-.0348-.18711-.0631-.2938-.084-.0808-.0164-.21642-.0549-.28539-.0943-.0811-.0441-.12497-.0813-.17638-.16721-.0871-.1484-.10266-.28435-.11735-.43735-.0106-.10492-.007-.21803 0-.3078l.014-.16789c.0141-.13575.0248-.29472.028-.44772s-.0444-.29927-.0566-.43373c-.0139-.15375-.0842-.26686-.10166-.34978 .0412.06.0844.11739.12592.16789 .12191.14903.21631.26983.27982.36377s.0979.1539.0979.1539-.025-.0569-.084-.1539-.1499-.23651-.26583-.39175c-.0468-.0629-.11009-.12097-.1539-.19587s-.0794-.16235-.0979-.25185-.0232-.18501-.028-.27982c-.007-.12645-.008-.24678-.014-.37776-.006-.13734-.0131-.28245-.028-.41974s-.0325-.26394-.07-.39174c-.057-.19363-.10709-.38472-.15389-.54566-.0666-.22898-.14493-.48784-.20988-.76952l-.042-.19587c.0406.10367.0908.15507.16789.23785 .20585.22106.34978.014.34978.014 .16785.12975.45457.54023.9514,1.63697-.0376-.0745-.10233-.10313-.1679-.13991-.11995-.0673-.35715.0468-.37775.22385-.0358.30765.20827,1.14691.23785.97938 .0222-.12568-.13403-.547-.042-.74153 .0479-.10124.24209-.12805.39176-.07 .0395.0154.025-.0959 0-.1679-.00066-.003.00066-.0119 0-.014-.38321-1.02294-.73798-1.73753-1.03535-2.08469-.17611-.2056-.3616-.31353-.44771-.3078-.0349.003-.0568.0622-.07.11193-.00044-.0539.003-.10096.014-.1539 .0309-.14037.078-.2914.19587-.34978 .11127-.062.25679-.0285.37776.028 .52181.2435.6843.60331.92342,1.04235 .1176.2159.36752.91511.51068,1.49005-.0723-.61679-.24657-1.14253-.30781-1.32916l.8045.014c.007.15984.0199.31743.056.4757 .0567.25283.17874.50522.37777.68557 .26743.23606.61043.33307.9374.41973 .53052.14386 1.07588.20883 1.62298.20987 .72004.002 1.44313-.0508 2.15464-.16789 .25249-.0415.50744-.0922.75552-.1679 .0832-.0253.16989-.0449.25184-.084 .05-.022.10614-.0575.15391-.11193 .13141-.16275.19191-.36052.23785-.54565 .0554-.21498.0857-.43.12592-.64359 .0279-.14985.0226-.31578-.014-.46171 .4174-.31305.9251-.34949 1.17526-.34978 .26036-.00028.69634.0951 1.1053.3078 .00066.0603.003.12236.014.18189 .043.21304.0956.42937.1539.6436 .0484.1845.10429.38466.23785.54565 .0485.0538.10362.0906.15391.11193 .0825.038.16837.0598.25184.0839 .24908.0724.5025.11581.75552.15391 .713.10766 1.43469.15112 2.15464.13991 .54703-.008 1.09441-.073 1.62297-.22386 .3258-.091.67315-.20813.93741-.44772 .19662-.18298.31044-.432.36377-.68556 .0343-.16027.052-.32825.056-.4897l1.10457-.23784c-.12602.24557-.23477.62245-.33506,1.02135 .14331-.38796.37229-.85935.51768-1.1053 .0363-.0615.1295-.208.22385-.29381s.2021-.17092.3218-.25185c.0825-.0555.17153-.10565.26583-.13991 .12387-.042.26515-.0913.36377-.028 .0652.0337.11304.1022.13992.18189-.0284-.0137-.0684-.0147-.11194-.014-.10233.002-.25073.0464-.41973.18189-.34468.27619-.64916.88509-1.11929,2.3785-.007.0224-.007.0471-.014.07-.006.0406.001.0932.028.084 .24546-.0861.431-.003.46171.19588 .0325.21052-.23036.58319-.16789.6296s.15184-.15282.22385-.3218c.0816-.19137.14826-.36256.13992-.51768-.0199-.36898-.30017-.55769-.53166-.33578 .53925-1.36912.77915-1.67245.95139-1.79087 0,0 .0698.16647.3218,0 .11127-.0735.22677-.16129.27982-.27982 .0114.18704-.0228.37405-.056.55964-.0685.37708-.17009.72385-.26584,1.00737-.0293.0867-.0625.18131-.0979.27982-.044.1228-.0719.25292-.0979.39175s-.0513.29049-.07.43373c-.0175.13286-.0245.2615-.042.39175-.013.0956-.0319.19366-.056.27983s-.0687.15623-.12592.22385-.12265.14016-.18189.19588c-.0725.0674-.13936.12283-.19588.18189l-.13991.1539c.0373-.043.0977-.0864.1539-.13991 .0589-.0561.1202-.11734.19588-.18189 .0618-.0524.13369-.11375.19588-.18189s.12188-.14075.1539-.23784c.0289-.0901.0396-.18507.056-.27983 .0225-.12955.048-.25943.07-.39175 .0233-.13938.0412-.28509.07-.41973s.0661-.25841.11193-.37776c.0659-.1724.12089-.34122.16789-.48969 .0754-.23818.14657-.52394.19588-.82549 .0371-.22317.0706-.46133.028-.69955-.0239-.14838-.0718-.31358-.20987-.39175-.0514-.0265-.11365-.0418-.16789-.042-.0904-.00042-.173.0372-.25184.07-.10064.0408-.19843.0946-.27982.1539-.0688.0501-.12178.10164-.18189.15391l-.20988.0279c.0164-.0457.0307-.0993.042-.15391 .15624-.75289.57215-3.25568.55964-4.50515-.0285-2.84839.65978-4.03133-1.39912-6.51989-.51762-.62564-1.12883-1.18445-1.80485-1.65095 .35596.0929.73336.23643 1.13328.43372-.87942-.71054-1.63484-1.19911-2.29455-1.53903l.96539.15391c-2.13219-1.05399-3.95007-1.36664-5.34463-1.35715h2e-005zm3.30192,5.21871c.7444.00066 1.35327.1592 1.72091.64359 1.0695,1.40913 1.3681,2.44413 1.49706,3.63771s.1034,2.06764.51767,2.72827c.3853.61446.46865,2.46453.40574,2.98012l-.82548.084c-.0407-.0711-.0803-.12586-.13991-.18189-.18119-.16911-.41038-.27638-.6296-.36377-.37591-.15116-.78012-.21905-1.17526-.26583-.33772-.0403-.66793-.0647-1.00736-.07-.26906-.004-.54715.0156-.81149.042-.321.0319-.63348.0725-.9514.12591-.29343.0493-.59203.10485-.88144.18189-.1114.0296-.22579.0708-.33579.11193-.0756.0277-.14999.0608-.22386.11193-.18144.12783-.31198.3071-.37776.51767-.0174.0555-.0332.11005-.042.16789-.33473-.1689-.79875-.26821-1.16127-.26583-.3751.003-.92998.1403-1.18925.3218-.0754-.16919-.19593-.32836-.34978-.43373-.0745-.0501-.16192-.0712-.23785-.0979-.11053-.0397-.22402-.0698-.33579-.0979-.29042-.0732-.57339-.1365-.86745-.18188-.31861-.0492-.644-.0844-.9654-.11194-.26466-.0228-.52851-.0356-.79749-.028-.33933.01-.68419.0252-1.02136.07-.39448.052-.78739.13767-1.16126.29382-.21804.0903-.45068.19227-.62961.36377-.11418.11018-.19077.24951-.22385.40574l-.48969-.028c-.11466-.32114-.44494-1.30876-.36377-1.86082 .0796-.54158.45478-.54624.50368-1.32917s-.14088-3.65851.0979-4.46318 1.29739-2.44251 2.23859-2.72827c1.62725-.49408 2.95584.459 5.33063.36377 1.55845-.0625 3.46177-.64545 4.88292-.6436l-2e-005,2e-005zm-.042,9.33211c.13099-.008.26156-.003.39175,0 .33535.005.67498.0162 1.00737.056 .39017.047.77574.12098 1.13328.26583 .21354.0873.42923.18478.58763.33579 .12419.11753.20728.281.20986.44771 .005.22865-.009.45343-.056.67158-.0517.23405-.15108.46114-.32179.61561-.23167.21598-.54576.32569-.86746.41974-.51437.14719-1.05746.20136-1.59499.20987-.71343.011-1.42218-.0195-2.12665-.12592-.25043-.0379-.50178-.0839-.74154-.15391-.0805-.0236-.16526-.0502-.23785-.0839-.0468-.0235-.0912-.0422-.11193-.07-.11206-.12857-.15844-.30784-.20987-.48969-.007-.0247-.008-.0591-.0139-.084 .0174-.0495.0113-.13194 0-.23785 .0745-.038.11659-.12426.0979-.20987s-.0969-.15181-.18188-.1539c-.0199-.0551-.0344-.10416-.056-.13991 8e-005-.01-.00042-.018 0-.028v-.042c.006-.0715.0207-.14121.042-.20987 .057-.18228.1803-.33911.33579-.44771 .056-.0401.12286-.07.19588-.0979 .10371-.0389.21266-.0688.3218-.0979 .28336-.0755.56233-.13289.85346-.18188 .31505-.053.63366-.0944.95139-.12593l.39175-.042v-4e-005zm-9.12224.34978h.19587c.19589.003.39046.0252.58763.042 .31812.0273.63567.0631.9514.11193 .29175.0451.58311.0961.86745.16789 .10952.0277.21758.0604.3218.0979 .0734.0269.13934.0586.19588.0979 .15692.10653.27635.2662.33578.44771 .0296.0912.0536.18459.056.27983-.021.036-.0508.0847-.07.13991-.0859.003-.16397.0661-.18189.15391-.0173.0847.0386.15814.11193.19587-.0102.10705-.004.20221.014.25184-.006.0258-.0214.0444-.028.07-.049.18251-.0995.37363-.20987.50368-.0203.0281-.0515.0457-.0979.07l-.23785.084c-.23881.0732-.47764.11263-.72754.15391-.70299.1158-1.42714.16942-2.14064.16789-.53761-.001-1.06472-.0555-1.58101-.19587-.32292-.0898-.66091-.19287-.89543-.40575-.17276-.15218-.26697-.36828-.3218-.60162-.0503-.2175-.0582-.45687-.056-.68557 .00042-.16674.0733-.32854.19588-.44772 .15637-.1531.36127-.24569.57364-.33578 .35557-.14958.74376-.22755 1.13328-.27983 .33183-.0442.67211-.0743 1.00736-.084l2e-005,3e-005z"/>
  <path d="m327.28841,111.11009c-.45544-.007-1.31435.13705-1.86082.44772-.0943.0397-.14353.13032-.13991.13991 .57769-.1558 1.16402-.3474 1.76288-.39175-.0511.0725-.0813.17047-.0839.26583-.007.25723.1905.46852.44772.4757s.46852-.19049.4757-.44771c.003-.0746-.0125-.14675-.042-.20987 .25943.0829.49911.2181.69956.41973 .0211.0208.0594-.0287.056-.042-.27524-.39828-.84061-.65001-1.31517-.65758zm.43373.27983c.0461-.006.0893.0388.0979.11193s-.0238.14826-.07.1539-.0893-.0528-.0979-.12592 .0238-.13427.07-.13991zm.028.33578c.0265.0139.0219.0707 0,.11193s-.0574.0558-.0839.042-.022-.0566 0-.0979 .0574-.0698.0839-.056z"/>
  <path d="m322.91849,120.82801c-.39761.0263-.75531-.0272-1.01385-.0782l-.30741-.0653c-.0735-.0151-.11609-.0204-.12037-.0111s.0334.0387.10561.0792 .17911.0916.31293.13991 .29467.0935.47094.1224 .36783.0412.55936.0299l.024-.002c.0503-.004.17514-.0164.32931-.0493s.3369-.0887.50444-.15947 .31948-.15561.42337-.22356 .16101-.11702.14414-.117-.0737.0162-.15226.0429l-.30838.1026c-.25049.078-.58347.16281-.95604.18791l-.0158.001z"/>
  <path d="m320.24627,116.90285c.0369.0738.10194.15671.18828.21719 .0591.0407.12402.0722.18788.0947s.12645.0365.1808.0452c.10871.0174.18348.0168.18348.0168s-.0721-.0129-.17349-.0461-.22947-.0902-.32684-.17786c-.082-.0729-.13572-.16784-.16411-.24617-.009-.0253-.0173-.0528-.0233-.0822-.0131-.0615-.0177-.13129-.0123-.20451s.0204-.14967.0415-.22232c.0399-.13648.10164-.26011.1531-.3481s.0908-.1413.0908-.1413l-.10968.12662c-.0634.0807-.14265.19781-.20076.33712-.0308.073-.0551.15301-.0675.23377s-.0126.16212-.00042.23701c.0104.0604.0298.11469.0526.16011z"/>
  <path d="m325.039,116.12236c-.0229-.069-.0618-.15013-.11416-.22707s-.11783-.14941-.18292-.20811-.12918-.10382-.17629-.13378l-.0771-.0456 .0718.0621c.0434.0399.10117.0981.15724.16845s.10971.15285.15026.23525 .0677.16443.0845.23263c.0105.0426.0197.0904.0244.14246 .006.0627.005.13139-.007.19968s-.0349.13604-.0679.19672c-.0605.11213-.15326.1963-.22718.24914s-.1276.0771-.1276.0771l.13778-.0581c.082-.0428.18967-.11635.27176-.2318 .0436-.0622.0775-.13458.0985-.21024s.0291-.15438.0257-.22817c-.004-.0833-.021-.15859-.0417-.22071z"/>
  <path d="m319.86624,109.37673c.58052.27784.42486.77032-.10605.71453-.55801-.0586-2.00741-.5151-2.886-.45365-.73328.0512-1.30369.43714-1.85416.62268 .51826-.57388.92774-.84944 1.73631-1.02776s2.67493-.064 3.1099.1442z"/>
  <path d="m324.77045,109.49929c-.37564.20281-.23471.62907.29984.56801 1.09344-.12488 1.87697-.43859 2.70928-.41226s1.3891.18059 1.78432.3368 .63111-.0866.0948-.31304-1.19538-.42674-1.95278-.47066c-1.04382-.0605-2.12099-.14861-2.9355.29115z"/>
  <path d="m332.05092,115.83929c-.00045-.0148-.001-.03-.002-.0455-.007-.164-.0154-.36964.003-.56874s.0591-.38737.0983-.52723 .073-.22963.073-.22963-.0424.0835-.0953.21899-.11372.32409-.14801.52906-.0388.40457-.0363.58063c.00044.0516.002.10037.003.1454 .002.10024.004.2123-.0106.32843-.019.15726-.077.32349-.1648.4698-.0311.0514-.0673.0989-.11298.13287-.0426.0322-.0931.0543-.1416.077-.16624.0777-.29907.17028-.39061.2408s-.14278.11833-.14278.11833l.15144-.1046c.0962-.062.23435-.14245.40151-.20604 .0495-.0186.10432-.0385.15759-.0725 .0572-.0377.10336-.0891.14051-.14385 .10191-.14794.17454-.32324.20238-.49655s.0202-.32009.0152-.44676z"/>
  <path d="m314.48073,117.63471c-.2772-1.05764-.26024-2.16139-.42606-3.23727-.0179-.13233-.0847-.57255-.0411-.2337 .13176,1.04082.10055,2.09801.28229,3.13263 .1803.9938.67528,1.89621 1.22365,2.73212 .4654.68802 1.03811,1.29704 1.65241,1.85356-.90884-.86465-1.68384-1.87668-2.21686-3.01554-.19411-.39592-.36555-.80348-.47431-1.2318z"/>
  <path d="m330.95574,117.46141c.0449-.23036.0815-.50428.1062-.79392 .027-.31426.0388-.64932.0356-.97453s-.0209-.64045-.044-.91565-.0512-.51033-.0729-.67656-.0365-.26367-.0365-.26367 .0104.0945.025.25685 .0334.39283.0468.66441 .0209.58429.0146.91028-.0268.66515-.0623.98985c-.0417.37902-.1018.73959-.17394,1.03254-.06.24347-.14351.51347-.27022.78472-.24919.5344-.50598,1.13467-.79309,1.6629-.27052.49783-.57166.92687-.80399,1.22915s-.39223.48101-.39223.48101 .16502-.17168.40695-.46628 .55752-.71553.84472-1.21232c.15032-.26019.29377-.53875.43123-.81946s.26944-.56326.39857-.83083c.17824-.37027.27778-.742.33944-1.05849z"/>
  <path d="m314.99 126.16c0.12245 1.9073 0.65652 3.0815 3.1972 4.0934 3.7953 1.5116 8.9489 0.80968 10.525-0.56465s2.0344-1.9717 1.5631-3.4285c1.1048 0.2708 2.3171 0.45344 3.41 0.46565 0.76215 8e-3 1.1994-0.24228 1.6573-0.40422 0.77961 0.33605 1.5972 0.21951 1.4949 1.7596-0.0816 1.2275 2.5691 2.0331 2.2187 3.7267 1.6989 0.10965 3.506-0.18684 4.6222 2.108 1.0904 0.44626 2.1042 1.7343 2.8133 2.3711h-49.27c0.65104-0.78124 3.9156-3.3906 5.2409-3.769 1.1727-0.33484 2.0376 0.1591 2.618-0.7491s-0.46301-1.3778 1.9265-2.9816 5.4162-2.5859 7.6396-2.6274z"/>
  <path d="m314.09 127.16 0.35177 0.22614c1.2922-2.1368 1.4252-4.7676 0.93685-7.1484 0.35112 2.4054 0.056 4.9882-1.2886 6.9223z"/>
  <path d="m316.38205,131.92741c-3.6836-1.62431-5.78267-4.84871-7.43061-4.10117 .21019-1.25331.83976-1.57075 2.10167-1.74882 .89907-.12686.47382-.69508 1.28164-.83318 .89003-.15215 1.64437.23624 1.95877.97938 0,0-.68762.86928-.49272,2.0478 .13938.8428.66775,2.32779 2.58125,3.65599z" fill="#106eb0"/>
  <path d="m330.52 127.28 0.48611-0.23507c-1.0197-1.7258-1.4099-4.2723-1.1149-6.5288-0.43275 2.2347-0.27654 4.6191 0.62875 6.7638z"/>
  <path d="m329.61 131.5c3.2954-1.9358 3.6316-3.6731 5.7391-5.1801-0.91217-0.89345-1.5086-0.39033-2.099-0.41913-0.58445-0.0285-0.99662-0.23447-1.5217-0.15998-0.53551 0.076-0.9495 0.13782-1.0636 0.59855 0.90062 1.8573 0.76377 2.965-1.0548 5.1606z" fill="#106eb0"/>
  <path d="m327.01174,112.32614c-.18559-.0143-.63748-.20065-.74047-.30253-.18835-.18631-.0351-.11867.0438-.0482 .16167.14451.61466.239.73403.23971 .15512.00065.45641.0297.80677-.0474 .13109-.029.20068-.0575.18647-.0363-.0157.0234-.0722.0662-.19901.10189-.33444.0941-.69165.10379-.83157.0929z"/>
 </g>
</svg>
