<?xml version="1.0" encoding="utf-8"?>
<!-- Generator: Adobe Illustrator 19.1.0, SVG Export Plug-In . SVG Version: 6.00 Build 0)  -->
<svg version="1.1" id="Layer_1" xmlns="http://www.w3.org/2000/svg" xmlns:xlink="http://www.w3.org/1999/xlink" x="0px" y="0px"
	 viewBox="0 0 64 64" enable-background="new 0 0 64 64" xml:space="preserve">
<g id="Sun">
	<path d="M32.1318512,18.2793007c-7.7119007,0-13.9863014,6.2743988-13.9863014,13.9862976
		s6.2744007,13.9864006,13.9863014,13.9864006s13.9862976-6.274498,13.9862976-13.9864006
		S39.84375,18.2793007,32.1318512,18.2793007z M32.1318512,44.2793007c-6.6245003,0-12.0137005-5.3897018-12.0137005-12.0137024
		s5.3892002-12.0135975,12.0137005-12.0135975s12.0136986,5.3895988,12.0136986,12.0135975
		S38.7563515,44.2793007,32.1318512,44.2793007z"/>
	<path d="M32.0000496,13.1688995c0.5522003,0,1-0.4471998,1-1V1c0-0.5527-0.4477997-1-1-1c-0.5522995,0-1,0.4473-1,1v11.1688995
		C31.0000496,12.7216997,31.4477501,13.1688995,32.0000496,13.1688995z"/>
	<path d="M32.0000496,50.830101c-0.5522995,0-1,0.4472008-1,1V63c0,0.5527,0.4477005,1,1,1c0.5522003,0,1-0.4473,1-1V51.830101
		C33.0000496,51.2773018,32.5522499,50.830101,32.0000496,50.830101z"/>
	<path d="M62.263649,30.4452991H51.09375c-0.5522003,0-1,0.4473-1,1s0.4477997,1.0000019,1,1.0000019h11.169899
		c0.5522995,0,1-0.4473019,1-1.0000019S62.8159485,30.4452991,62.263649,30.4452991z"/>
	<path d="M13.90625,31.4452991c0-0.5527-0.447794-1-0.999999-1H1.7363508c-0.5523,0-1,0.4473-1,1s0.4477,1.0000019,1,1.0000019
		H12.906251C13.458456,32.4453011,13.90625,31.9979992,13.90625,31.4452991z"/>
	<path d="M45.1801491,19.8778992c0.2559013,0,0.5116997-0.097599,0.7070999-0.2929001l7.8988991-7.8984995
		c0.3906021-0.3905993,0.3906021-1.0233994,0-1.4139996c-0.3905983-0.3907003-1.0234985-0.3907003-1.4140968,0l-7.8989029,7.8984003
		c-0.3905983,0.3906002-0.3905983,1.0233994,0,1.4140987C44.668457,19.7803001,44.9243507,19.8778992,45.1801491,19.8778992z"/>
	<path d="M45.887249,45.2030983c-0.3906975-0.3905983-1.0234985-0.3905983-1.4141006,0
		c-0.3905983,0.3907013-0.3905983,1.0235023,0,1.4141006l7.8989029,7.8973999
		c0.1952972,0.1954002,0.4511986,0.2929993,0.7070999,0.2929993c0.2557983,0,0.5116997-0.097599,0.7069969-0.2929993
		c0.3906021-0.3905983,0.3906021-1.0233994,0-1.4139977L45.887249,45.2030983z"/>
	<path d="M18.112751,19.5849991c0.1954002,0.1953011,0.4511986,0.2929001,0.7070999,0.2929001
		c0.2558002,0,0.5116997-0.097599,0.7069988-0.2929001c0.3906059-0.3906994,0.3906059-1.0234985,0-1.4140987L11.6289501,10.2725
		c-0.3906994-0.3907003-1.0234947-0.3907003-1.4140997,0c-0.3906002,0.3906002-0.3906002,1.0234003,0,1.4139996
		L18.112751,19.5849991z"/>
	<path d="M19.5712509,45.2700996c-0.0177002-0.0208015-0.024601-0.0471992-0.0444012-0.0670013
		c-0.3906002-0.3905983-1.0233936-0.3905983-1.4140987,0l-3.9401007,3.9400024l-4.0341949,3.8446999
		c-0.3999052,0.3811989-0.415205,1.0139008-0.0339994,1.4137993c0.0192947,0.0203018,0.045495,0.0278015,0.066,0.0460014
		c0.0176945,0.0208969,0.0245943,0.0472984,0.0443945,0.0669975c0.1953001,0.1954002,0.4512005,0.2929993,0.7069998,0.2929993
		c0.2559004,0,0.5117006-0.097599,0.7070999-0.2929993l3.9401007-3.9398994l4.0341997-3.8446999
		c0.3999004-0.3811989,0.415205-1.0139008,0.0340004-1.4137993C19.6179504,45.2958984,19.5917511,45.2882996,19.5712509,45.2700996z
		"/>
</g>
<g>
</g>
<g>
</g>
<g>
</g>
<g>
</g>
<g>
</g>
<g>
</g>
<g>
</g>
<g>
</g>
<g>
</g>
<g>
</g>
<g>
</g>
<g>
</g>
<g>
</g>
<g>
</g>
<g>
</g>
</svg>
