<?xml version="1.0" encoding="UTF-8"?>
<svg clip-rule="evenodd" fill-rule="evenodd" image-rendering="optimizeQuality" shape-rendering="geometricPrecision" text-rendering="geometricPrecision" version="1.1" viewBox="0 0 8000 8000" xml:space="preserve" xmlns="http://www.w3.org/2000/svg">
 <defs>
  <style type="text/css">
    .fil5 {fill:none}
    .fil4 {fill:black}
    .fil1 {fill:#051A33}
    .fil0 {fill:#E6E6E6}
    .fil3 {fill:#E7F4F5}
    .fil2 {fill:#EA0311}
    .fil6 {fill:#05172E;fill-rule:nonzero}
  </style>
 </defs>
   <path class="fil0" d="m4e3 6444c-1445 0-2616 239-2616 533 0 295 1171 533 2616 533s2616-238 2616-533c0-294-1171-533-2616-533z"/>
   <path class="fil1" d="m3452 751c-396 183-681 564-794 1038-66 273-126 495-180 966-33 284-107 467-200 545-630 524-950 1267-790 2099 34 173 123 148 131-20 20-428 117-643 206-793 102-172 272-373 550-581 16 19 27 43 33 72-306 237-487 475-580 700-165 400-162 811 41 1250 78 168 232 381 464 637 22 8 34 30 30 52-4 23-23 40-46 39-117-4-314 6-409 79-53 42-56 90 17 118 48 19 85 21 106 31 50 23 103 18 158 6 102-24 172-19 172 48 0 65 71 120 231 69 329-103 549-128 727-9 63 42 133 6 134-70 0-78-24-118 11-147 74-60 262-70 536-75 274 5 462 15 536 75 35 29 11 69 11 147 1 76 71 112 134 70 178-119 398-94 727 9 160 51 231-4 231-69 0-67 70-72 172-48 55 12 108 17 158-6 21-10 58-12 106-31 73-28 70-76 17-118-95-73-292-83-409-79-23 1-42-16-46-39-4-22 8-44 30-52 232-256 386-469 464-637 203-439 206-850 41-1250-93-225-274-463-580-700 6-29 17-53 33-72 278 208 448 409 550 581 89 150 186 365 206 793 8 168 97 193 131 20 160-832-160-1575-790-2099-93-78-167-261-200-545-54-471-114-693-180-966-160-671-664-1156-1342-1156 106-49 241-97 405-143-388 45-706 132-953 261z"/>
   <path class="fil2" d="m4255 2701c-84-67-163-156-255-156s-171 89-255 156c-63 50-65 82 5 138 73 61 153 97 250 96 97 1 177-35 250-96 70-56 68-88 5-138z"/>
   <path class="fil3" d="m3508 1377c-178 0-319 146-406 348-67 157-121 381-134 688-9 192-48 302-98 347-271 251-281 500-55 736 79 83 148 156 211 220 83 84 96 186 0 222-548 205-958 759-1072 1041-149 368 109 1442 608 1703 310 163 630 157 889 70 166-56 344-103 549-97 205-6 383 41 549 97 259 87 579 93 889-70 499-261 757-1335 608-1703-114-282-524-836-1072-1041-96-36-83-138 0-222 63-64 132-137 211-220 226-236 216-485-55-736-50-45-89-155-98-347-13-307-67-531-134-688-87-202-228-348-406-348-243 0-436 266-453 600-10 192-20 336-16 435 98 38 215 119 348 243 101 129 43 247-172 352-62 23-128 34-199 34s-137-11-199-34c-215-105-273-223-172-352 133-124 250-205 348-243 4-99-6-243-16-435-17-334-210-600-453-600z"/>
   <path class="fil4" d="m4604 2030c1 68 1 148-1 240 0 114-58 207-130 207s-131-93-131-207c0-54 13-102 34-139 28-51 73-89 137-114-2 3-4 7-6 11-24 50-25 99-2 110s61-20 85-70c6-13 11-26 14-38z"/>
   <path class="fil4" d="m3657 2030c1 68 1 148-1 240 0 114-58 207-130 207s-131-93-131-207c0-54 13-102 34-139 28-51 73-89 137-114-2 3-4 7-6 11-24 50-25 99-2 110s61-20 85-70c6-13 11-26 14-38z"/>
  <polygon class="fil5" points="8e3 0 0 0 0 8e3 8e3 8e3"/>
  <path class="fil6" d="m5522 6921c4-1 4 6 0 7-14 2-19-7-22-20-9-37-3-126 49-128 40-1 17 66-7 83l12 7c22-17 59-20 56 18-1 11-3 15-8 15-6-1-16-29-17-29-6 1-11 7-13 14 3 6 3 11 1 15 0 1 5 18 24 11 14-5 16-25 14-34-2-10-2-7-3-16 1-3 4-4 7-2 1 6 0 1 1 7 4-7 9-13 20-12 2-1 4 0 6 2l4 4c6 21-9 36-10 49-1 6 13 8 22 0l9-13c-1-9-1-16 1-22-1-3-1-6-1-7 0-2 3-4 5-4 13-21 44-4 19 37v1c-2 3 4 19 9 14l18-20c-25-18 16-40 33-36 8 2 7 7 2 11-8 6-16 15-25 24l12 1c1 0 4-7 8-6 1 0 3 1 3 3 0 5-3 8-7 9-1 1-5 11 0 13 2 1 4 2 6 1 7-2 14-10 21-28 5-14 4-21 10-14 2 3 0 9 4 24 1 9 0 12 1 12s0-3 2-7c0-5 2-10 3-14-12-17-16-25-10-32 4-5 18-7 43-10l22-3 74-9c-1-2 1-5 3-5 7 1 9 3 9 5-1 6-77 15-85 16-9 1-17 2-22 2-46 6-47 6-31 28 1-5 4-10 6-14 1-1 3-2 4-2l3 4c2 5 5 16 6 26l4 19c2 4 3 9 5 12 6 8 5 9 3 7 3 11 2 12-9-4-2-3-10-19-19-32l-1-1c-2 6-4 20-8 21-6 1-10-14-11-24-19 46-49 32-41 10l-12-3-19 21c-12 12-25-12-19-22 9-16 12-36 1-37-5 0-11 7-11 9 1 3 2 9 2 14-1 2-2 4-2 6 1 5 1 10 2 14 2 9 3 17 0 18l-4-3c-1 0-1-1 0-2-2-2-3-5-5-10-5 8-13 15-24 14-36-3 3-37-5-59h-1l-3-2c-12 0-15 11-15 22v7c10 38-1 32-6 12-7 18-31 25-43 12-1-1-3-3-4-6-15 17-46 13-31-20 3-7 6-12 11-16l-12-7c-5-2-4-4-3-6l2-1c20-9 50-82 7-72-46 13-43 118-30 132 2 1 5 1 10 1zm38-48c3 3 6 5 8 7 2-6 8-12 16-12 8-2 18 27 19 27s0-2 1-7c2-31-26-26-44-15zm6 17c-3-5-6-8-12-12-5 4-8 9-11 14-8 18 0 25 13 20 4-2 7-5 10-9-1-5-2-9 0-13zm56 23zm54 5c1 0 0-1-1-2 0 2 0 2 1 2zm46-25c8-9 18-18 26-25-10 1-25 6-30 16-2 3 1 7 4 9zm82-16c-3 4-4 8-5 12l7 12-2-24zm121-40z"/>
</svg>
