<?xml version="1.0" encoding="UTF-8"?>
<svg width="800" height="600" version="1.1" viewBox="0 0 800.00001 600.00001" xmlns="http://www.w3.org/2000/svg">
 <defs>
  <radialGradient id="a" cx="325.41" cy="384.22" r="8.1353" gradientTransform="matrix(.81376 0 0 .62967 345.45 281.68)" gradientUnits="userSpaceOnUse">
   <stop stop-color="#ff8c00" offset="0"/>
   <stop stop-color="#ff8c00" stop-opacity="0" offset="1"/>
  </radialGradient>
 </defs>
 <g transform="translate(0 -452.36)">
  <path d="m262.21 636.57c21.887-15.058 43.12-31.79 67.453-42.453 25.363-11.114 53.023-16.332 80.189-21.698 13.527-2.6719 27.287-4.1799 41.038-5.1887 22.743-1.6684 45.016-7.3118 66.611 0.0134 6.674 2.2638 15.794 5.1902 18.295 11.779 8.5493 22.524-15.121 71.226-15.121 71.226l-71.624 87.059-40.614 10.111-46.226 53.302-166.51 69.34-38.679 14.151-79.245 17.453s-0.50812-22.363 2.3585-33.019c3.9094-14.532 12.976-27.16 19.811-40.566 10.192-19.99 19.296-40.673 31.604-59.434 5.9535-9.0751 13.312-17.153 20.283-25.472 15.884-18.956 29.8-37.8 47.271-55.303 11.568-11.589 38.578-32.904 38.578-32.904s16.108-12.603 24.528-18.396z" fill="#fff5ee" fill-rule="evenodd" stroke="#000" stroke-width="1px"/>
  <path d="m176.59 871.96s93.834 3.1452 140.31-2.1367c64.172-7.2929 131.93-11.235 189.46-40.598 25.604-13.069 47.146-34.477 64.102-57.691 15.668-21.452 28.42-58.974 30.095-73.315 0 0 4.4379-33.527 14.064-48.477 11.418-17.733 35.981-17.772 51.462-32.096 12.863-11.903 27.933-26.716 33.295-43.401 1.6705-5.1987-2.1482-11.361 0-16.382 2.8406-6.6384 14.592-8.9269 15.669-14.957 1.6655-9.3189 1.7654-21.47-2.849-30.626-8.1724-16.216-24.022-29.261-41.598-33.823-7.3032-1.8952-13.601 1.4753-21.079 2.4841-15.31 2.0654-31.95-3.5949-46.296 2.1367-21.881 8.7422-40.029 26.907-53.418 46.296-7.0425 10.198-10.183 22.79-12.82 34.9-1.3172 6.0492 0.87326 12.769-1.4245 18.518-3.0689 7.6781-12.396 11.637-15.669 19.23-5.7827 13.413-0.62829 29.748-5.6979 43.447-4.8225 13.03-13.108 24.936-22.792 34.9-14.505 14.924-33.66 24.539-51.281 35.612-12.242 7.6929-28.063 10.632-37.749 21.367-8.3326 9.2352-6.833 24.768-14.957 34.187-13.724 15.912-35.078 23.218-53.418 33.475-26.132 14.615-53.679 26.543-80.483 39.885-11.881 5.9143-24.443 9.3516-36.946 13.803-13.294 4.7336-39.976 13.262-39.976 13.262z" fill="#d2c0b3" fill-rule="evenodd" stroke="#000" stroke-linejoin="round" stroke-width="1px"/>
  <path d="m528.43 758.71c9.9409 5.5817 21.843 19.846 17.806 29.202-13.641 31.612-80.066 88.999-114.67 118.94-33.177 28.71-61.748 48.542-95.44 67.663-38.449 21.821-69.754 51.23-104.7 62.677-5.866 1.9215-14.737 4.8789-18.518 0-9.9124-12.789 4.8061-32.568 12.108-47.008 10.508-20.78 32.809-33.798 44.159-54.13 6.0017-10.752 5.1941-21.88 12.108-32.07 15.5-22.843 40.27-39.787 62.677-56.96 20.594-15.784 42.862-29.388 65.526-42.022 11.037-6.1528 23.502-9.6357 34.187-16.382 13.419-8.4716 22.074-24.626 37.036-29.914 14.998-5.3003 33.85-7.7877 47.72 0z" fill="#d2c0b3" fill-rule="evenodd" stroke="#000" stroke-width="1px"/>
  <path d="m377.44 622.68c24.279 15.353 39.49 27.267 56.01 42.415 0 0 21.609-13.431 30.883-23.896 6.027-6.8008 9.7285-14.624 12.455-23.292 3.3723-10.72 1.717-23.05 8.1995-31.55 4.9032-6.4298 11.302-9.3009 16.684-15.336 1.1395-1.2777 4.6834-4.607 4.6834-4.607s-29.909 1.987-44.871 2.849c-13.766 0.79298-29.49-0.77079-42.31 4.3047-7.5182 2.9765-13.109 9.6592-18.518 15.669-9.6035 10.67-23.216 33.444-23.216 33.444z" fill="#ed773c" fill-opacity=".88309" fill-rule="evenodd" stroke="#000" stroke-linejoin="round" stroke-width="1px"/>
  <path d="m484.38 616.28s15.052-10.086 23.585-12.736c2.6543-0.82428 5.3089-0.80593 7.79-2.0585 8.0522-4.065 21.134-25.514 18.787-24.843 0 0-5.5882-3.0559-9.8721-6.1174-4.1242-2.9473-15.285-4.193-15.285-4.193s-2.485 2.3683-5.451 5.3172c-3.1661 3.1478-6.8803 6.9571-8.7049 9.2532-2.877 3.6204-6.3609 7.0038-8.0189 11.321-2.8949 7.5374-2.8302 24.057-2.8302 24.057z" fill="#ed773c" fill-opacity=".88309" fill-rule="evenodd" stroke="#000" stroke-linejoin="round" stroke-width="1px"/>
  <path d="m480.6 628.55s3.7018 15.632 4.717 23.585c1.0569 8.2795 1.4151 25 1.4151 25s18.155-18.855 23.77-32.075c5.1155-12.043 5.4985-39.151 5.4985-39.151l-14.646 10.849z" fill="#ed773c" fill-opacity=".88309" fill-rule="evenodd" stroke="#000" stroke-linejoin="round" stroke-width="1px"/>
  <path d="m476.75 632.29s2.8071 15.82 4.1022 22.508c1.6764 8.6568 2.5825 26.582 2.5825 26.582s-18.344 14.126-27.83 20.755c-12.011 8.3934-37.293 21.222-37.293 21.222l-19.783-28.297s9.7032-10.584 15.566-14.623c10.077-6.9408 22.931-9.1133 33.019-16.038 7.9795-5.4772 14.671-12.691 21.226-19.811 2.5779-2.8003 8.4096-12.298 8.4096-12.298z" fill="#ed773c" fill-opacity=".88309" fill-rule="evenodd" stroke="#000" stroke-linejoin="round" stroke-width="1px"/>
  <path d="m390.98 695.53s7.2833 12.896 12.536 20.197c2.2416 3.116 10.106 10.935 10.106 10.935s-7.7049 3.4942-10.377 6.6038c-8.6262 10.037-9.8846 25.696-18.206 35.987-3.5396 4.3778-11.511 10.239-11.511 10.239-9.224-10.206-20.993-19.718-34.434-28.774 0 0 8.8918-16.905 15.094-24.057 10.526-12.137 36.792-31.132 36.792-31.132z" fill="#ed773c" fill-opacity=".88309" fill-rule="evenodd" stroke="#000" stroke-width="1px"/>
  <path d="m373.06 627.13c18.644 11.365 35.756 24.645 51.887 39.151 0 0-30.191 13.833-43.868 23.113-11.812 8.0148-23.563 16.737-32.547 27.83-6.4208 7.928-8.3996 18.803-14.623 26.887-7.1238 9.2544-25.472 24.057-25.472 24.057s-5.0263-21.469-8.0189-32.075c-2.417-8.5669-8.4633-16.581-8.0189-25.472 0.23915-4.7838 2.9079-9.2876 5.6604-13.208 11.251-16.023 28.642-26.703 42.925-40.094 10.711-10.043 32.075-30.189 32.075-30.189z" fill="#ed773c" fill-opacity=".88309" fill-rule="evenodd" stroke="#000" stroke-width="1px"/>
  <path d="m298.06 686.57c8.3628-11.167 21.787-17.464 32.075-26.887 12.134-11.114 23.575-22.974 34.906-34.906 8.8927-9.3646 17.505-18.998 25.943-28.774 6.1299-7.1018 19.811-21.698 19.811-21.698s-43.368 6.389-63.679 14.151c-23.41 8.946-46.604 20.406-65.566 36.792-12.469 10.775-25.395 23.384-30.189 39.151-1.3751 4.523-1.198 9.9363 0.94339 14.151 7.4319 14.628 37.736 31.604 37.736 31.604-4.6227-1.2424 6.2064-21.041 8.0189-23.585z" fill="#ed773c" fill-opacity=".88309" fill-rule="evenodd" stroke="#000" stroke-linejoin="round" stroke-width="1px"/>
  <path d="m243.34 679.49s16.928 15.271 26.415 23.349c5.4597 4.649 13.115 10.47 16.981 16.509 5.2235 8.1585 5.0146 17.772 7.5472 27.123 2.3663 8.7367 8.0189 25.943 8.0189 25.943s-24.549 10.959-36.792 16.509c-16.853 7.64-33.782 15.122-50.472 23.113-6.9764 3.3403-20.755 10.377-20.755 10.377s0.51173-25.624 1.8868-38.208c1.1336-10.374 2.5737-20.692 5.6604-30.66 3.3294-10.752 9.5254-20.011 14.858-29.717 8.304-15.113 26.651-44.34 26.651-44.34z" fill="#ed773c" fill-opacity=".88309" fill-rule="evenodd" stroke="#000" stroke-width="1px"/>
  <path d="m198.76 744.82c-11.039 10.391-28.213 20.125-41.274 19.104-4.7752-0.37343-6.3308-8.4649-5.6604-13.208 1.8766-13.276 13.745-20.856 22.406-32.311 14.885-19.689 34.691-35.761 52.594-52.123 9.1005-8.317 19.538-15.042 29.245-22.642 3.7897-2.9669 11.321-8.9623 11.321-8.9623s-14.801 15.114-20.283 24.057c-7.6744 12.519-17.799 29.184-26.887 46.226-7.1005 13.315-10.475 29.516-21.462 39.858z" fill="#ed773c" fill-opacity=".88309" fill-rule="evenodd" stroke="#000" stroke-width="1px"/>
  <path d="m196.17 754.96s-6.4896 22.466-8.4906 33.962c-2.1676 12.454-3.7736 37.736-3.7736 37.736s-28.221 15.061-43.396 19.811c-9.3009 2.9112-28.774 5.1887-28.774 5.1887s10.196-22.644 16.038-33.962c4.9671-9.6234 10.915-19.501 16.509-28.774 3.8338-6.3547 7.3646-13.348 13.208-17.925 10.988-8.6061 38.679-16.038 38.679-16.038z" fill="#ed773c" fill-opacity=".88309" fill-rule="evenodd" stroke="#000" stroke-linejoin="round" stroke-width="1px"/>
  <path d="m110.56 856.38s-10.269 18.987-16.274 26.415c-2.6561 3.2855-4.8504 7.9916-8.9623 8.9623-3.3874 0.79965-6.6038 4.0094-6.6038 4.0094s1.6012-17.126 4.2453-25.236c1.4167-4.3455 4.9528-13.915 4.9528-13.915 7.461 0.48947 15.695-0.0572 22.642-0.23585z" fill="#ed773c" fill-opacity=".88309" fill-rule="evenodd" stroke="#000" stroke-linejoin="round" stroke-width="1px"/>
  <path d="m106.78 850.72c-3.569 5.1426-17.689 2.8302-17.689 2.8302s16.675-32.554 25.472-48.585c5.3198-9.6941 8.4465-20.987 14.858-30.189 4.9594-7.1175 8.1366-9.7967 17.925-18.868 2.117-1.962 4.3965 5.6081 4.2453 8.4906-0.31305 5.9687-5.5687 10.02-8.7264 15.094-8.0285 12.902-14.438 26.745-21.698 40.094-5.3479 9.8334-9.2554 23.738-14.387 31.132z" fill="#ed773c" fill-opacity=".88309" fill-rule="evenodd" stroke="#000" stroke-width="1px"/>
  <path d="m163.15 846.47s-8.8281 9.7705-10.613 17.689c-0.51984 2.3059-2.5943 14.387-2.5943 14.387l-51.887 11.792s9.7198-13.012 14.151-19.811c2.6944-4.1342 7.5472-12.736 7.5472-12.736s12.456-1.9589 18.632-3.3019c7.1423-1.553 24.764-8.0189 24.764-8.0189z" fill="#ed773c" fill-opacity=".88309" fill-rule="evenodd" stroke="#000" stroke-linejoin="round" stroke-width="1px"/>
  <path d="m169.52 843.88c8.2911-8.3672 17.551-8.4079 31.368-16.274 1.5935-0.90714 16.981-8.9623 16.981-8.9623s0.0532 19.597-1.4151 29.245c-0.65977 4.3357-3.3019 12.736-3.3019 12.736s-22.033 7.4557-33.491 8.9623c-4.0532 0.53295-8.643-1.8973-12.264 0-2.2021 1.1538-3.6515 4.3561-5.8962 5.4245-1.8511 0.88106-4.4811 0.23585-4.4811 0.23585s2.3465-10.225 4.2453-15.094c2.2097-5.6669 3.9735-11.953 8.2547-16.274z" fill="#ed773c" fill-opacity=".88309" fill-rule="evenodd" stroke="#000" stroke-width="1px"/>
  <path d="m80.603 897.89c-2.2208 1.0561 12.551-1.0253 38.915-7.783 6.4677-1.6578 41.509-12.736 41.509-12.736s-15.265 18.71-22.877 25.708c-11.162 10.26-21.33 22.092-34.434 29.717-8.5109 4.9522-17.99 9.5474-27.83 9.9057-4.7269 0.1721-11.276 0.30026-13.679-3.7736-2.0542-3.4816 1.1703-8.1065 2.8302-11.792 3.1524-7 6.7956-10.906 9.9057-17.925 1.4371-3.2432 5.6604-11.321 5.6604-11.321z" fill="#d2c0b3" fill-rule="evenodd" stroke="#000" stroke-linejoin="round" stroke-width="1px"/>
  <path d="m221.17 816.28 1.8868 41.981 63.679-32.075c-5.672-10.396-7.6848-21.249-9.9057-32.075z" fill="#ed773c" fill-opacity=".88309" fill-rule="evenodd" stroke="#000" stroke-width="1px"/>
  <path d="m281.55 791.76c4.2196 10.199 5.7586 21.637 12.012 31.023 0 0 29.752-14.276 43.592-21.813 11.607-6.3209 34.491-20.059 34.491-20.059l-36.792-27.358s-12.443 15.37-20.283 21.226c-9.9156 7.4067-33.019 16.981-33.019 16.981z" fill="#ed773c" fill-opacity=".88309" fill-rule="evenodd" stroke="#000" stroke-width="1px"/>
  <path d="m598.55 711.4c-1.0428 6.3791 9.6924 11.204 15.071 14.789 4.9645 3.3096 12.952 1.2599 16.981 5.6604 2.2922 2.5033 1.4249 10.869 4.3597 12.574 9.2067 5.3491 19.632-5.983 28.659-11.631 11.701-7.3208 22.181-18.067 27.83-30.66 4.8537-10.821 7.9657-24.284 3.7736-35.377-2.7143-7.183-9.993-12.384-16.981-15.566-7.6324-3.4758-16.625-3.2742-25-2.8302-10.133 0.53726-19.395 3.9822-29.383 5.7699-3.4365 0.61505-11.209-2.3744-12.379 0.91479-5.9477 16.72-10.522 41.618-12.931 56.356z" fill="#d2c0b3" fill-rule="evenodd" stroke="#000" stroke-width="1px"/>
  <path d="m716.28 540.29c0.19239 1.2258 0.10184 2.4958-0.23013 3.8077-2.5344 0.14491-10.541 1.2332-19.972 3.0222-11.507 2.1826-24.936 5.3749-33.268 9.1097-3.4434 1.5114-7.7232 4.2075-12.257 7.4476-4.5232 3.2328-9.1946 6.931-13.466 10.448-8.5226 7.0159-15.303 13.184-15.53 12.952-0.22647-0.23187 6.1129-6.8785 14.249-14.419 4.057-3.7598 8.6007-7.7783 12.977-11.308 4.3582-3.515 8.6834-6.653 12.307-8.6145 8.5851-4.5836 22.294-8.488 33.74-11.322 9.4728-2.3455 17.475-3.9739 20.014-4.6624 0.75212 1.1338 1.2434 2.3128 1.4357 3.5384z" fill-rule="evenodd"/>
  <path d="m648.06 506.85c-3.7718 5.2868 0.10829 13.332-2.3585 19.34-3.3209 8.0878-16.038 20.755-16.038 20.755s14.686-3.1212 21.226-6.6038c9.9704-5.3087 22.175-10.757 26.415-21.226 1.4274-3.5249 0.29826-7.9256-1.4151-11.321-2.028-4.0186-5.2733-8.0431-9.7841-9.3073-0.19942-0.0559-0.39736-0.0985-0.59328-0.12665-6.4039-0.91891-13.695 3.224-17.453 8.4906z" fill-rule="evenodd" stroke="#000" stroke-linejoin="round" stroke-width="1px"/>
  <path d="m623.39 524.11c2.0829-2.4836 3.8816-3.4909 5.7936-5.6081s1.7889-8.8164 5.6555-7.0992c4.1895 1.8606 2.219 7.3975 1.42 11.011-0.60922 2.7552-2.1533 5.6223-4.5216 7.1564-3.12 2.0211-8.0966 4.89-11.04 1.5819-2.3577-2.6504 0.41254-4.324 2.692-7.042z" fill="#dcdcdc" fill-opacity=".59627" fill-rule="evenodd"/>
  <path d="m586.26 506.85c6.5349-1.1513 13.38 1.7984 19.34 4.717 6.882 3.3705 12.731 6.591 16.169 13.334 0.0764 0.14978 0.15154 0.30129 0.22551 0.45458 0.47834 0.99125 3.5133 3.8925 2.0012 4.1357-13.881 2.2328-17.346-0.84239-25-3.7736-5.377-2.0591-14.151-9.9057-14.151-9.9057s-3.4419-3.9656-2.8302-6.1321c0.46214-1.6367 2.5703-2.5351 4.2453-2.8302z" fill="#696969" fill-rule="evenodd" stroke="#000" stroke-linejoin="round" stroke-width="1px"/>
  <path d="m592.87 494.59c7.5875-3.4495 14.695-1.1925 22.999-0.47169 5.7448 0.49869 14.548-0.38393 18.982 3.3019 4.94 4.1058 7.3882 11.509 7.0755 17.925-0.35258 7.2344-4.4941 14.526-9.9057 19.34-6.3936 5.6876-14.834 6.9786-23.39 7.1278-5.9656 0.10402-10.357-0.76807-15.147-4.3262-5.2527-3.9022-10.723-9.3396-12.822-15.537-1.3123-3.8749-1.8703-8.4196-0.4717-12.264 2.3214-6.3811 6.4973-12.284 12.679-15.094z" fill="none" stroke="#000" stroke-width="1px"/>
  <path d="m584.85 566.76c8.0501-0.84268 14.992-6.6304 21.226-11.792 1.8918-1.5664 4.8866-3.2102 4.717-5.6604-0.16144-2.3318-2.9938-3.9132-5.1887-4.717-4.1366-1.515-9.1014-1.1239-13.208 0.4717-5.1981 2.0199-10.136 5.9156-12.736 10.849-1.4006 2.6574-2.5989 6.4557-0.9434 8.9623 1.1786 1.7845 4.0051 2.1094 6.1321 1.8868z" fill-rule="evenodd" stroke="#000" stroke-width="1px"/>
  <path d="m577.3 553.08c5.3747 1.437 8.7334-5.5198 9.7626-10.987 0.40327-2.1423 0.35862-4.2677-0.36215-6.213-1.2768-3.446-2.8744-7.4968-6.6847-8.7669-2.0722-0.69076-2.7212 0.12334-3.6591 0.9671-2.6268 2.3631-3.6657 6.3739-3.7736 9.9057-0.161 5.2689-0.37556 13.733 4.717 15.094z" fill-rule="evenodd" stroke="#000" stroke-linejoin="round" stroke-width="1px"/>
  <path d="m558.91 573.83 14.151-10.377 2.8302-6.6038-8.0189-2.8302-11.792 5.6604-4.717 8.0189z" fill-rule="evenodd" stroke="#000" stroke-width="1px"/>
  <path d="m580.13 585.62 5.6604 6.1321-3.3019 6.1321-9.434 2.3585-7.0755-5.6604z" fill-rule="evenodd" stroke="#000" stroke-width="1px"/>
  <path d="m590.04 575.72 1.8868 5.6604 10.849-6.1321-3.7736-6.6038z" fill-rule="evenodd" stroke="#000" stroke-width="1px"/>
  <path d="m566.45 576.19 10.849-7.5472 4.717 2.8302-0.94339 5.6604-9.434 5.1887-5.6604-1.4151z" fill-rule="evenodd" stroke="#000" stroke-width="1px"/>
  <path d="m541.92 585.15 8.9623-9.434 10.849 3.7736 0.4717 5.6604-8.9623 6.6038h-9.434z" fill-rule="evenodd" stroke="#000" stroke-width="1px"/>
  <path d="m540.51 607.32 8.9623-8.0189-6.1321-4.2453-8.0189 0.9434 0.4717 8.0189z" fill-rule="evenodd" stroke="#000" stroke-width="1px"/>
  <path d="m556.07 607.32 7.5472-1.4151 1.4151-5.6604-5.6604-1.8868-6.6038 3.3019z" fill-rule="evenodd" stroke="#000" stroke-width="1px"/>
  <path d="m533.43 613.93 4.717-3.3019-2.8302-3.7736h-2.8302l-3.7736 4.2453z" fill-rule="evenodd" stroke="#000" stroke-width="1px"/>
  <path d="m536.26 580.44 8.9623-3.3019-0.9434-16.038 0.4717-8.4906-4.2453 0.9434-3.7736 11.792z" fill-rule="evenodd" stroke="#000" stroke-width="1px"/>
  <path d="m551.36 557.32 9.434-6.1321 6.6038-1.4151-0.9434-13.208-8.4906 2.8302-8.0189-1.4151-6.1321 8.4906z" fill-rule="evenodd" stroke="#000" stroke-width="1px"/>
  <path d="m552.77 532.32s9.6924-0.62963 14.151-2.3585c2.7433-1.0637 5.2014-2.8527 7.409-4.7979 1.517-1.3367 2.0104-3.518 2.4108-5.4699 1.067-5.2014-0.16677-15.928-0.16677-15.928s-9.4727 10.966-14.37 16.29c-3.4914 3.7962-9.434 12.264-9.434 12.264z" fill-rule="evenodd" stroke="#000" stroke-linejoin="round" stroke-width="1px"/>
  <path d="m642.18 497.44c7.1178-0.27751 20.715-3.5497 25.691-8.0426 2.6611-2.403-5.1321-5.3482-8.4906-6.6038-8.1123-3.0328-26.444-0.2477-26.444-0.2477s-21.701-3.1814-31.103 1.6628c-3.8659 1.9918-8.4906 9.9057-8.4906 9.9057s11.288-3.2314 17.119-3.7213c7.8481-0.65928 16.845-3.0446 23.918 0.41939 3.2508 1.5921 4.1828 6.7685 7.7998 6.6275z" fill-rule="evenodd" stroke="#000" stroke-width="1px"/>
  <path d="m680.71 489.17c2.8104 1.7963 3.6005 7.3859 1.4151 9.9057-1.7513 2.0193-4.9716 2.6659-7.185 1.1674-2.1034-1.4241-3.9337-4.7875-2.8302-7.0755 1.4263-2.9571 5.8338-5.7657 8.6001-3.9976z" fill="none" stroke="#000" stroke-width="1px"/>
  <path d="m703.63 511.95c-3.8001-1.8044-5.0396-2.7607-8.4808-7.266-1.509-1.9757-3.4584-5.103-2.1917-7.2422 0.89565-1.5126 2.0185-1.9948 3.6878-1.4437 3.2745 1.0811 3.8429 5.2366 6.2416 7.7139 2.6295 2.7157 6.2896 4.9546 5.6841 8.686-0.22527 1.3882-3.0616 0.44438-4.941-0.44799z" fill="none" stroke="#000" stroke-width="1px"/>
  <path d="m628.88 505.02c2.5555-0.14472 6.051-0.85606 5.4936-3.3542-0.57398-2.5724-3.3425-2.5727-5.8795-1.8582-1.6088 0.45313-2.9877 0.94519-2.8016 2.6062 0.23814 2.1253 1.0522 2.7271 3.1874 2.6062z" fill="#696969" fill-rule="evenodd"/>
  <path d="m616.45 501.66c1.837 0.94995 4.6374 0.48587 6.1321-0.9434 0.57945-0.55409 0.74611-1.6052 0.4717-2.3585-0.34459-0.94597-1.3972-1.5876-2.3585-1.8868-2.1072-0.65579-5.5112-1.4458-6.6038 0.47169-0.8703 1.5274 0.797 3.9095 2.3585 4.717z" fill="#696969" fill-rule="evenodd"/>
  <path d="m590.98 517.23c3.2209 0.74344 9.1877-0.94735 8.9623-4.2453-0.21364-3.1256-5.5324-3.6871-8.6287-4.1644-1.8648-0.28745-5.1766-0.36641-5.9939 1.3342-1.3084 2.7222 2.7174 6.3962 5.6604 7.0755z" fill="#dcdcdc" fill-rule="evenodd"/>
  <path d="m602.3 523.83c2.4392 4.1042 9.248 6.0223 13.679 4.2453 1.5025-0.60254 2.6783-2.6584 2.3585-4.2453-0.55305-2.7443-3.8496-4.6874-6.6038-5.1887-3.0822-0.56101-6.8704 0.4981-8.9623 2.8302-0.53534 0.59681-0.88131 1.6693-0.4717 2.3585z" fill="url(#a)" fill-rule="evenodd"/>
  <ellipse cx="660.79" cy="681.14" rx="4.717" ry="4.9528"/>
  <ellipse cx="635.79" cy="679.49" rx="4.2453" ry="2.8302"/>
  <ellipse cx="633.67" cy="669.35" rx="4.0094" ry="3.5377"/>
  <ellipse cx="641.45" cy="660.39" rx="4.2453" ry="2.5943"/>
  <ellipse cx="657.49" cy="664.87" rx="4.717" ry="2.3585"/>
  <ellipse cx="673.53" cy="661.8" rx="7.5472" ry="5.4245"/>
  <ellipse cx="676.12" cy="676.19" rx="2.5943" ry="2.8302"/>
  <ellipse cx="684.14" cy="689.16" rx="4.9528" ry="4.0094"/>
  <ellipse cx="668.57" cy="713.45" rx="4.4811" ry="2.8302"/>
  <ellipse cx="625.65" cy="660.86" rx="4.4811" ry="3.066"/>
  <ellipse cx="659.61" cy="655.44" rx="3.5377" ry="3.7736"/>
  <ellipse cx="629.9" cy="710.86" rx="3.5377" ry="3.066"/>
  <ellipse cx="635.08" cy="725.72" rx="2.1226" ry="3.7736"/>
  <ellipse cx="653.24" cy="700.72" rx="3.7736" ry="4.717"/>
  <path d="m235.32 1035.5s-3.7106-16.863 0.4717-23.48c2.0662-3.2693 6.9011-6.8835 10.377-5.1887 6.83 3.3298 4.5265 22.342 4.5265 22.342-4.9216 2.3127-9.6138 4.8549-15.376 6.3274z" fill="#4c2b1a" fill-opacity=".99918" fill-rule="evenodd" stroke="#140707" stroke-opacity=".95559" stroke-width="1px"/>
  <path d="m276.59 1013.3s-3.1553-10.84-7.783-12.146c-5.2112-1.4711-12.468 2.1076-14.623 7.0755-2.2356 5.1558 5.0118 16.097 5.0118 16.097 6.2483-3.0448 11.928-6.8859 17.394-11.026z" fill="#4c2b1a" fill-opacity=".99918" fill-rule="evenodd" stroke="#140707" stroke-linejoin="round" stroke-opacity=".95559" stroke-width="1px"/>
  <path d="m274.47 996.94s1.7258-7.8016 4.717-9.9057c2.5849-1.8183 9.434-0.94339 9.434-0.94339l11.262 11.851-18.75 12.618z" fill="#4c2b1a" fill-opacity=".99918" fill-rule="evenodd" stroke="#140707" stroke-linecap="round" stroke-linejoin="round" stroke-opacity=".95559" stroke-width=".9"/>
  <path d="m217.81 1015.8 11.841-0.5003-0.33354 20.513-13.508 0.1667z" fill="#4c2b1a" fill-opacity=".99918" fill-rule="evenodd" stroke="#140707" stroke-opacity=".95559" stroke-width="1px"/>
  <path d="m222.48 1002.8 8.5053 1.3342-2.0012 4.8363h-8.1718z" fill="#4c2b1a" fill-opacity=".99918" fill-rule="evenodd" stroke="#140707" stroke-opacity=".95559" stroke-width="1px"/>
  <path d="m225.81 999.14h5.3366l1.6677-5.3366-5.1699-3.1686z" fill="#4c2b1a" fill-opacity=".99918" fill-rule="evenodd" stroke="#140707" stroke-opacity=".95559" stroke-width="1px"/>
  <path d="m236.65 994.97-2.168 6.504 2.3348 4.3361 2.168-3.8358 2.8351 0.5004 2.6683-4.5028 2.0012-4.0025-5.3366-0.33354z" fill="#4c2b1a" fill-opacity=".99918" fill-rule="evenodd" stroke="#140707" stroke-opacity=".95559" stroke-width="1px"/>
  <path d="m237.99 987.8 4.336-1.5009-1.3342-5.3367-3.5022-3.0019-3.669 3.5022-1.1674 4.6696 6.0037 1.8345z" fill="#4c2b1a" fill-opacity=".99918" fill-rule="evenodd" stroke="#140707" stroke-opacity=".95559" stroke-width="1px"/>
  <path d="m247.99 987.3 3.0019 0.33354 2.5016-3.1686 3.669-0.50031 0.16678-5.3366-6.0037-0.33354-0.16677 3.0019-3.5022 0.50032-1.3342 3.8357z" fill="#4c2b1a" fill-opacity=".99918" fill-rule="evenodd" stroke="#140707" stroke-opacity=".95559" stroke-width="1px"/>
  <path d="m241.65 976.29c1.3342 0.50031 4.1693 1.6677 4.1693 1.6677l3.669-3.5022-0.16677-6.504-5.6702-0.50031-0.33354 3.669-2.8351 0.66708-0.83385 2.6683z" fill="#4c2b1a" fill-opacity=".99918" fill-rule="evenodd" stroke="#140707" stroke-opacity=".95559" stroke-width="1px"/>
  <path d="m257.16 972.62 5.6702 4.6696 2.6683-3.0019-2.168-3.669-5.1699-1.0006z" fill="#4c2b1a" fill-opacity=".99918" fill-rule="evenodd" stroke="#140707" stroke-opacity=".95559" stroke-width="1px"/>
  <path d="m250.99 961.11 3.3354-1.6677 1.0006-3.669 4.8363 1.5009 0.33354 5.1699-3.8357 1.1674-1.6677 3.5022-3.8357-0.83386z" fill="#4c2b1a" fill-opacity=".99918" fill-rule="evenodd" stroke="#140707" stroke-opacity=".95559" stroke-width="1px"/>
  <path d="m254.33 993.47 6.0037-3.0019 4.1693 5.1699-2.168 4.336-4.8363 1.5009-5.1699 0.8339-2.0012-3.669z" fill="#4c2b1a" fill-opacity=".99918" fill-rule="evenodd" stroke="#140707" stroke-opacity=".95559" stroke-width="1px"/>
  <path d="m269.17 994.47c0-1.1674 0.83385-6.6708 0.83385-6.6708l3.0019-3.5022 2.168-3.1686-3.1686-2.5016-3.8357 0.33354-0.33355 3.5022h-4.1693l-0.66708 4.0025 2.3348 2.0012z" fill="#4c2b1a" fill-opacity=".99918" fill-rule="evenodd" stroke="#140707" stroke-opacity=".95559" stroke-width="1px"/>
  <path d="m283.51 982.29-5.3367-2.168 1.1674-3.0019-4.6696-2.0012 2.8351-1.8345 2.0012-0.33354s0.16677-2.0012 0.83385-2.0012h4.336l1.1674 2.3348 2.3348 1.8345-3.669 3.1686z" fill="#4c2b1a" fill-opacity=".99918" fill-rule="evenodd" stroke="#140707" stroke-opacity=".95559" stroke-width="1px"/>
  <path d="m303.53 993.47-1.6677-8.6721-7.0044-1.8345-1.3342-5.837 7.6714-1.8345 4.6696 3.3354 13.175 2.0012-12.174 1.5009z" fill="#4c2b1a" fill-opacity=".99918" fill-rule="evenodd" stroke="#140707" stroke-opacity=".95559" stroke-width="1px"/>
  <path d="m334.05 973.62-4.336-11.841s2.168-11.007-1.1674-12.174c-3.3354-1.1674-21.013 11.507-21.013 11.507s-5.6702 4.8363-4.0025 7.1711 10.34 4.5028 10.34 4.5028l9.8395 0.50031z" fill="#4c2b1a" fill-opacity=".99918" fill-rule="evenodd" stroke="#140707" stroke-opacity=".95559" stroke-width="1px"/>
  <path d="m293.35 970.62 2.168-4.5028-2.8351-5.6702-3.669-0.50031-3.669 1.8345 0.33354 3.1686 2.3348 3.1686 3.3354-0.33354z" fill="#4c2b1a" fill-opacity=".99918" fill-rule="evenodd" stroke="#140707" stroke-opacity=".95559" stroke-width="1px"/>
  <path d="m297.86 960.11 4.1693-4.0025 1.3342-1.8345h2.5016l-1.6677-4.8363-2.6683-2.0012-2.6683-3.0019-3.0019 3.0019-2.3348 4.5028-1.6677 1.8345z" fill="#4c2b1a" fill-opacity=".99918" fill-rule="evenodd" stroke="#140707" stroke-opacity=".95559" stroke-width="1px"/>
  <path d="m270.51 970.28 3.1686-4.336 4.8363-2.5016-1.3342-4.336-3.5022-2.0012s-2.5016 0.50031-3.1686 0.83385-3.5022 2.8351-3.5022 2.8351l-2.6683 1.5009 4.6696 2.8351 0.50031 3.8357 1.1674 1.8345z" fill="#4c2b1a" fill-opacity=".99918" fill-rule="evenodd" stroke="#140707" stroke-opacity=".95559" stroke-width="1px"/>
  <path d="m284.51 956.61 2.0012-4.5028 1.3342-5.0031-2.168-1.5009-3.669 2.5016-2.8351 1.6677-1.0006 2.0012 1.5009 3.1686 1.1674 0.83385z" fill="#4c2b1a" fill-opacity=".99918" fill-rule="evenodd" stroke="#140707" stroke-opacity=".95559" stroke-width="1px"/>
  <path d="m266 954.94 3.1686-4.5028 5.837-3.0019 0.66709-4.0025h-4.6696l-5.3366 1.1674s-0.66708 2.3348-1.3342 2.6683c-0.66709 0.33354-2.8351 1.5009-2.8351 1.5009l-0.33354 3.1686 4.8363 3.669z" fill="#4c2b1a" fill-opacity=".99918" fill-rule="evenodd" stroke="#140707" stroke-opacity=".95559" stroke-width="1px"/>
  <path d="m277.18 937.6 7.8382-5.5034 3.3354-0.50031 0.66708-4.6696-3.1686-1.6677-5.6702-0.16677-0.83385 3.3354-3.3354 2.3348 1.0006 2.6683-2.5016 1.8345-2.3348 0.50031 0.33354 1.8345 5.1699 0.16677z" fill="#4c2b1a" fill-opacity=".99918" fill-rule="evenodd" stroke="#140707" stroke-opacity=".95559" stroke-width="1px"/>
  <path d="m342.55 967.95-4.5028-17.344-2.168-9.1724s1.8345-6.3373 7.0044-7.5047 16.177 2.8351 16.177 2.8351l15.843 13.508-16.177 10.673-15.51 9.1724z" fill="#4c2b1a" fill-opacity=".99918" fill-rule="evenodd" stroke="#140707" stroke-opacity=".95559" stroke-width="1px"/>
  <path d="m330.88 941.6 0.83385-9.5059-6.8376-0.50031-2.168 4.0025 3.669 4.8363z" fill="#4c2b1a" fill-opacity=".99918" fill-rule="evenodd" stroke="#140707" stroke-opacity=".95559" stroke-width="1px"/>
  <path d="m316.03 947.77 1.6677-4.6696 3.5022-1.0006-2.5016-5.5034-4.336-0.83385-2.168-1.6677-1.8345 5.0031-4.6696 2.3348 2.0012 3.1686 3.669 1.3342 0.50031 3.0019z" fill="#4c2b1a" fill-opacity=".99918" fill-rule="evenodd" stroke="#140707" stroke-opacity=".95559" stroke-width="1px"/>
  <path d="m301.69 928.09c0.16677 0.66708 6.0037 6.3373 6.0037 6.3373l-10.507 6.3373-4.1693 2.8351-6.3373-2.6683-1.6677-2.6683 5.5034-2.0012 2.0012-4.1693 2.5016 2.0012 0.50031-3.3354 4.6696 1.1674z" fill="#4c2b1a" fill-opacity=".99918" fill-rule="evenodd" stroke="#140707" stroke-opacity=".95559" stroke-width="1px"/>
  <path d="m315.37 931.26-5.5034-3.5022s1.5009-2.168 0.66708-2.5016c-0.83385-0.33354-4.1693 0.33354-3.669-1.0006 0.50032-1.3342 0.83386-3.3354 1.5009-3.669 0.66708-0.33354 3.669-2.8351 3.669-2.8351l5.837-1.5009 2.0012 3.8357s3.0019 3.0019 2.5016 4.0025c-0.50031 1.0006-3.3354 5.5034-3.3354 5.5034z" fill="#4c2b1a" fill-opacity=".99918" fill-rule="evenodd" stroke="#140707" stroke-opacity=".95559" stroke-width="1px"/>
  <path d="m340.38 929.43c-0.66708-0.16677-8.3385-0.83385-8.5053-1.5009-0.16677-0.66709-3.0019-2.8351-3.0019-2.8351s-2.168-1.3342-0.50032-2.0012c1.6677-0.66708 4.336-1.8345 4.336-1.8345s2.0012-1.6677 2.6683-1.6677c0.66709 0 5.6702-0.16677 5.6702 0.50031 0 0.66709 0.83385 4.0025 1.0006 4.6696 0.16677 0.66708-1.6677 4.6696-1.6677 4.6696z" fill="#4c2b1a" fill-opacity=".99918" fill-rule="evenodd" stroke="#140707" stroke-opacity=".95559" stroke-width="1px"/>
  <path d="m324.87 917.59s5.6702-2.3348 6.3373-2.5016 4.0025-3.1686 4.0025-3.1686l-4.1693-3.0019s-1.8345-2.0012-2.5016-1.5009c-0.66708 0.50031-5.5034 3.3354-5.5034 3.3354l-3.8357 3.1686 6.0037 4.1693z" fill="#4c2b1a" fill-opacity=".99918" fill-rule="evenodd" stroke="#140707" stroke-opacity=".95559" stroke-width="1px"/>
  <path d="m355.89 912.08c-0.50031 1.0006-0.33354 6.6708 0.66708 8.6721 1.0006 2.0012 3.1686 10.173 3.1686 10.173l-5.5034-3.1686-4.8364-1.0006-1.8345-3.8357 0.66708-3.0019 1.8345-3.0019s1.1674-2.6683 2.0012-2.8351 3.8357-2.0012 3.8357-2.0012z" fill="#4c2b1a" fill-opacity=".99918" fill-rule="evenodd" stroke="#140707" stroke-opacity=".95559" stroke-width="1px"/>
  <path d="m376.24 944.1s-11.841-18.011-12.007-22.848c-0.16677-4.8364 0.16678-13.842 3.8357-16.677s6.3373-5.5034 10.34-4.0025c4.0025 1.5009 7.6714-0.50031 11.674 0.16677 4.0025 0.66708 18.845 10.006 18.845 10.006l6.1705 6.8376 1.3342 2.0012-19.345 15.176-17.344 12.841z" fill="#4c2b1a" fill-opacity=".99918" fill-rule="evenodd" stroke="#140707" stroke-opacity=".95559" stroke-width="1px"/>
  <path d="m347.89 911.75 1.0006-3.5022 2.168-5.1699-2.8351-1.6677-5.5034 3.1686-5.6702 4.1693 1.5009 3.8357 6.8376 0.83385z" fill="#4c2b1a" fill-opacity=".99918" fill-rule="evenodd" stroke="#140707" stroke-opacity=".95559" stroke-width="1px"/>
  <path d="m345.55 894.74 4.6696-4.1693-0.83386-3.8357-3.8357-0.33354-3.8357 2.6683-1.8345 3.3354z" fill="#4c2b1a" fill-opacity=".99918" fill-rule="evenodd" stroke="#140707" stroke-opacity=".95559" stroke-width="1px"/>
  <path d="m327.88 904.24 5.837 0.50031 4.0025-1.8345 4.336-3.5022-4.6696-1.5009-4.8363 2.5016z" fill="#4c2b1a" fill-opacity=".99918" fill-rule="evenodd" stroke="#140707" stroke-opacity=".95559" stroke-width="1px"/>
  <path d="m316.2 907.91 4.8363-3.5022 0.16677-5.0031-6.1705-1.6677-4.336 5.1699 0.66709 4.336z" fill="#4c2b1a" fill-opacity=".99918" fill-rule="evenodd" stroke="#140707" stroke-opacity=".95559" stroke-width="1px"/>
  <path d="m301.36 916.58 7.1711-2.6683 4.336-2.3348-6.6708-1.1674 0.33354-3.669-5.0031-0.16677-2.8351 3.0019z" fill="#4c2b1a" fill-opacity=".99918" fill-rule="evenodd" stroke="#140707" stroke-opacity=".95559" stroke-width="1px"/>
  <path d="m298.36 924.26 2.3348-3.5022-4.5028-2.8351-3.0019 4.1693z" fill="#4c2b1a" fill-opacity=".99918" fill-rule="evenodd" stroke="#140707" stroke-opacity=".95559" stroke-width="1px"/>
  <path d="m289.85 918.75s4.1693-3.669 4.1693-6.1705c0-2.5016-4.1693-7.3379-4.1693-7.3379l-5.0031-1.6677-2.3348 3.669s-1.3342 4.336-1.6677 5.0031-3.3354 5.0031-3.3354 5.0031z" fill="#4c2b1a" fill-opacity=".99918" fill-rule="evenodd" stroke="#140707" stroke-opacity=".95559" stroke-width="1px"/>
  <path d="m300.86 903.24 6.0037-5.837 5.6702-4.336-8.005-3.3354-6.8376-0.66708-5.6702 3.0019-3.0019 6.3373 2.8351 4.1693z" fill="#4c2b1a" fill-opacity=".99918" fill-rule="evenodd" stroke="#140707" stroke-opacity=".95559" stroke-width="1px"/>
  <path d="m327.21 897.24 5.1699-5.0031 4.5028-4.0025-2.8351-2.6683-8.3385 2.8351-4.0025 3.3354s-1.3342 1.1674-0.50032 2.0012c0.83386 0.83385 6.0037 3.5022 6.0037 3.5022z" fill="#4c2b1a" fill-opacity=".99918" fill-rule="evenodd" stroke="#140707" stroke-opacity=".95559" stroke-width="1px"/>
  <path d="m299.86 885.9 15.343-0.66708 11.507-1.5009 8.3385-8.8388-16.01-2.6683-5.6702 2.8351-3.3354 2.6683z" fill="#4c2b1a" fill-opacity=".99918" fill-rule="evenodd" stroke="#140707" stroke-opacity=".95559" stroke-width="1px"/>
  <path d="m360.4 892.4c0.66709 0.33354 7.1711 5.0031 7.1711 5.0031l-9.0056-0.50031-0.50031 4.6696-5.3367-2.5016-1.0006-3.1686 3.669-3.0019z" fill="#4c2b1a" fill-opacity=".99918" fill-rule="evenodd" stroke="#140707" stroke-opacity=".95559" stroke-width="1px"/>
  <path d="m363.06 888.23h5.3367l2.0012-4.8363-6.504-0.66708z" fill="#4c2b1a" fill-opacity=".99918" fill-rule="evenodd" stroke="#140707" stroke-opacity=".95559" stroke-width="1px"/>
  <path d="m355.89 885.9 8.1718-6.8376-6.504-1.8345-2.3348 3.1686-3.5022 0.50031z" fill="#4c2b1a" fill-opacity=".99918" fill-rule="evenodd" stroke="#140707" stroke-opacity=".95559" stroke-width="1px"/>
  <path d="m376.91 894.74 11.34-0.50031 0.33354-8.005h-10.173l-3.3354 3.0019z" fill="#4c2b1a" fill-opacity=".99918" fill-rule="evenodd" stroke="#140707" stroke-opacity=".95559" stroke-width="1px"/>
  <path d="m339.72 882.73c0.66708 0 3.669-0.83385 3.669-0.83385l1.3342-2.5016 3.0019 0.33354 0.33354-3.5022 5.0031-0.83385-3.1686-5.5034-4.1693 0.66708-1.0006 1.6677-5.837 0.33354z" fill="#4c2b1a" fill-opacity=".99918" fill-rule="evenodd" stroke="#140707" stroke-opacity=".95559" stroke-width="1px"/>
  <path d="m370.9 879.23-3.8357-4.336 4.1693-3.3354 5.0031-3.5022 1.5009 4.0025 5.0031 0.16677-0.33354 4.6696-2.8351 2.6683z" fill="#4c2b1a" fill-opacity=".99918" fill-rule="evenodd" stroke="#140707" stroke-opacity=".95559" stroke-width="1px"/>
  <path d="m388.08 879.56 5.5034-0.66708 1.6677-2.6683h2.6683l0.16677-3.0019-0.83385-1.6677-4.6696 0.50031-3.0019 0.83385-0.66708 4.5028z" fill="#4c2b1a" fill-opacity=".99918" fill-rule="evenodd" stroke="#140707" stroke-opacity=".95559" stroke-width="1px"/>
  <path d="m378.24 865.39 10.507 0.16677 2.168-2.3348 2.5016-0.66708 1.5009-6.1705-4.0025-1.0006-5.0031 1.8345-6.0037 4.8363z" fill="#4c2b1a" fill-opacity=".99918" fill-rule="evenodd" stroke="#140707" stroke-opacity=".95559" stroke-width="1px"/>
  <path d="m361.56 870.06 3.1686-4.0025 3.5022-1.6677 1.6677-2.6683 1.0006-3.669-2.0012-3.0019-4.336-1.0006-2.0012 5.0031-2.0012 3.8357-5.837 1.1674-2.6683 2.168-0.16677 1.0006z" fill="#4c2b1a" fill-opacity=".99918" fill-rule="evenodd" stroke="#140707" stroke-opacity=".95559" stroke-width="1px"/>
  <path d="m336.05 868.39 16.51-8.3385 7.0044-6.6708-9.3391-0.16677-8.6721 2.8351-6.6708-0.50031-15.343 11.841z" fill="#4c2b1a" fill-opacity=".99918" fill-rule="evenodd" stroke="#140707" stroke-opacity=".95559" stroke-width="1px"/>
  <path d="m341.88 850.38 10.673-1.5009s11.007-1.6677 13.842-2.5016c2.8351-0.83386 10.173-2.8351 12.508-7.0044 2.3348-4.1693 5.1699-19.512 5.1699-19.512l-20.68 13.342z" fill="#4c2b1a" fill-opacity=".99918" fill-rule="evenodd" stroke="#140707" stroke-opacity=".95559" stroke-width="1px"/>
  <path d="m423.43 913.75-19.012-14.509-8.1718-5.1699s-1.5009-5.0031 2.0012-8.8388c3.5022-3.8357 17.844-14.009 19.512-14.175 1.6677-0.16677 6.3373-5.3367 13.175-0.66709 6.8376 4.6696 19.179 20.346 19.179 20.346l-13.175 11.841z" fill="#4c2b1a" fill-opacity=".99918" fill-rule="evenodd" stroke="#140707" stroke-opacity=".95559" stroke-width="1px"/>
  <path d="m454.12 886.73s-11.156-8.3979-12.841-14.676c-0.89613-3.3378 4e-3 -7.3524 2.0012-10.173 4.3633-6.1626 12.005-10.699 19.512-11.507 5.1211-0.55137 10.733 1.5222 14.676 4.8363 2.0751 1.7443 3.8357 7.1711 3.8357 7.1711l-27.851 24.515z" fill="#4c2b1a" fill-opacity=".99918" fill-rule="evenodd" stroke="#140707" stroke-opacity=".95559" stroke-width="1px"/>
  <path d="m412.13 845.21c0.66708 0.33354 7.1711 5.0031 7.1711 5.0031l-9.0056-0.50031-0.50031 4.6696-5.3366-2.5016-1.0006-3.1686 3.669-3.0019z" fill="#4c2b1a" fill-opacity=".99918" fill-rule="evenodd" stroke="#140707" stroke-opacity=".95559" stroke-width="1px"/>
  <path d="m414.8 841.04h5.3367l2.0012-4.8363-6.504-0.66708z" fill="#4c2b1a" fill-opacity=".99918" fill-rule="evenodd" stroke="#140707" stroke-opacity=".95559" stroke-width="1px"/>
  <path d="m391.45 835.54c0.66708 0 3.669-0.83385 3.669-0.83385l1.3342-2.5016 3.0019 0.33354 0.33354-3.5022 5.0031-0.83385-3.1686-5.5034-4.1693 0.66708-1.0006 1.6677-5.837 0.33354z" fill="#4c2b1a" fill-opacity=".99918" fill-rule="evenodd" stroke="#140707" stroke-opacity=".95559" stroke-width="1px"/>
  <path d="m422.64 832.04-3.8357-4.336 4.1693-3.3354 5.0031-3.5022 1.5009 4.0025 5.0031 0.16677-0.33354 4.6696-2.8351 2.6683z" fill="#4c2b1a" fill-opacity=".99918" fill-rule="evenodd" stroke="#140707" stroke-opacity=".95559" stroke-width="1px"/>
  <path d="m439.81 832.37 5.5034-0.66708 1.6677-2.6683h2.6683l0.16677-3.0019-0.83385-1.6677-4.6696 0.50031-3.0019 0.83385-0.66708 4.5028z" fill="#4c2b1a" fill-opacity=".99918" fill-rule="evenodd" stroke="#140707" stroke-opacity=".95559" stroke-width="1px"/>
  <path d="m429.97 818.2 10.507 0.16677 2.168-2.3348 2.5016-0.66708 1.5009-6.1705-4.0025-1.0006-5.0031 1.8345-6.0037 4.8363z" fill="#4c2b1a" fill-opacity=".99918" fill-rule="evenodd" stroke="#140707" stroke-opacity=".95559" stroke-width="1px"/>
  <path d="m421.98 857.84c0.66708 0.33354 7.1711 5.0031 7.1711 5.0031l-9.0056-0.50031-0.50031 4.6696-5.3366-2.5016-1.0006-3.1686 3.669-3.0019z" fill="#4c2b1a" fill-opacity=".99918" fill-rule="evenodd" stroke="#140707" stroke-opacity=".95559" stroke-width="1px"/>
  <path d="m424.65 853.67h5.3367l2.0012-4.8363-6.504-0.66708z" fill="#4c2b1a" fill-opacity=".99918" fill-rule="evenodd" stroke="#140707" stroke-opacity=".95559" stroke-width="1px"/>
  <path d="m401.3 848.17c0.66708 0 3.669-0.83385 3.669-0.83385l1.3342-2.5016 3.0019 0.33354 0.33354-3.5022 5.0031-0.83385-3.1686-5.5034-4.1693 0.66708-1.0006 1.6677-5.837 0.33354z" fill="#4c2b1a" fill-opacity=".99918" fill-rule="evenodd" stroke="#140707" stroke-opacity=".95559" stroke-width="1px"/>
  <path d="m432.49 844.67-3.8357-4.336 4.1693-3.3354 5.0031-3.5022 1.5009 4.0025 5.0031 0.16677-0.33354 4.6696-2.8351 2.6683z" fill="#4c2b1a" fill-opacity=".99918" fill-rule="evenodd" stroke="#140707" stroke-opacity=".95559" stroke-width="1px"/>
  <path d="m449.66 845 5.5034-0.66708 1.6677-2.6683h2.6683l0.16677-3.0019-0.83385-1.6677-4.6696 0.50031-3.0019 0.83385-0.66708 4.5028z" fill="#4c2b1a" fill-opacity=".99918" fill-rule="evenodd" stroke="#140707" stroke-opacity=".95559" stroke-width="1px"/>
  <path d="m461.04 826.78 10.507 0.16677 2.168-2.3348 2.5016-0.66708 1.5009-6.1705-4.0025-1.0006-5.0031 1.8345-6.0037 4.8363z" fill="#4c2b1a" fill-opacity=".99918" fill-rule="evenodd" stroke="#140707" stroke-opacity=".95559" stroke-width="1px"/>
  <path d="m378.88 851.48 10.507 0.16677 2.168-2.3348 2.5016-0.66708 1.5009-6.1705-4.0025-1.0006-5.0031 1.8345-6.0037 4.8363z" fill="#4c2b1a" fill-opacity=".99918" fill-rule="evenodd" stroke="#140707" stroke-opacity=".95559" stroke-width="1px"/>
  <path d="m409.94 816.63 10.507 0.16677 2.168-2.3348 2.5016-0.66708 1.5009-6.1705-4.0025-1.0006-5.0031 1.8345-6.0037 4.8363z" fill="#4c2b1a" fill-opacity=".99918" fill-rule="evenodd" stroke="#140707" stroke-opacity=".95559" stroke-width="1px"/>
  <path d="m449.08 796.94 10.507 0.16677 2.168-2.3348 2.5016-0.66708 1.5009-6.1705-4.0025-1.0006-5.0031 1.8345-6.0037 4.8363z" fill="#4c2b1a" fill-opacity=".99918" fill-rule="evenodd" stroke="#140707" stroke-opacity=".95559" stroke-width="1px"/>
  <path d="m459.22 812.21-3.8357-4.336 4.1693-3.3354 5.0031-3.5022 1.501 4.0025 5.0031 0.16677-0.33354 4.6696-2.8351 2.6683z" fill="#4c2b1a" fill-opacity=".99918" fill-rule="evenodd" stroke="#140707" stroke-opacity=".95559" stroke-width="1px"/>
  <path d="m499.37 767.77-3.8357-4.336 4.1693-3.3354 5.0031-3.5022 1.5009 4.0025 5.0031 0.16677-0.33354 4.6696-2.8351 2.6683z" fill="#4c2b1a" fill-opacity=".99918" fill-rule="evenodd" stroke="#140707" stroke-opacity=".95559" stroke-width="1px"/>
  <path d="m478.84 772.26-2.9203-3.3095 3.1742-2.5458 3.8091-2.673 1.1427 3.0549 3.8091 0.12728-0.25394 3.564-2.1585 2.0366z" fill="#4c2b1a" fill-opacity=".99918" fill-rule="evenodd" stroke="#140707" stroke-opacity=".95559" stroke-width=".76229px"/>
  <path d="m471.03 784.24-2.041-3.0036 2.2185-2.3105 2.6622-2.426 0.79865 2.7726 2.6622 0.11553-0.17748 3.2347-1.5086 1.8484z" fill="#4c2b1a" fill-opacity=".99918" fill-rule="evenodd" stroke="#140707" stroke-opacity=".95559" stroke-width=".60712px"/>
  <path d="m518.54 770.78-2.7479-3.1396 2.9868-2.415 3.5842-2.5358 1.0753 2.898 3.5842 0.12076-0.23894 3.381-2.031 1.932z" fill="#4c2b1a" fill-opacity=".99918" fill-rule="evenodd" stroke="#140707" stroke-opacity=".95559" stroke-width=".72022px"/>
  <path d="m488.59 852.6s-7.4748-6.06-8.6985-10.523c-0.65064-2.3731 3e-3 -5.2274 1.453-7.2328 3.168-4.3815 8.7161-7.6067 14.167-8.1814 3.7182-0.39201 7.7621 1.081 10.655 3.4386 1.6469 1.3419 3.1421 5.5449 3.1421 5.5449-7.5598 6.5342-13.312 13.171-19.821 18.945z" fill="#4c2b1a" fill-opacity=".99918" fill-rule="evenodd" stroke="#140707" stroke-opacity=".95559" stroke-width=".71848px"/>
 </g>
</svg>
