<svg xmlns="http://www.w3.org/2000/svg" width="2500" height="2500" viewBox="0 0 192.756 192.756"><g fill-rule="evenodd" clip-rule="evenodd"><path fill="#fff" d="M0 0h192.756v192.756H0V0z"/><path d="M50.618 101.811l1.231.268-4.314 13.678H8.504v-1.371h1.903c2.132 0 3.654-.697 4.568-2.08.521-.799.774-2.641.774-5.508V74.263c0-3.146-.343-5.113-1.041-5.9-.964-1.091-2.398-1.637-4.301-1.637H8.504v-1.383h22.827v1.383c-2.677-.025-4.555.216-5.634.736-1.078.52-1.814 1.18-2.208 1.979-.393.786-.596 2.689-.596 5.685v31.67c0 2.057.203 3.465.596 4.238.292.521.749.9 1.371 1.154.621.242 2.55.369 5.798.369h3.68c3.87 0 6.585-.279 8.146-.852 1.561-.57 2.982-1.586 4.276-3.031 1.282-1.445 2.576-3.742 3.858-6.863z"/><path d="M56.631 92.346H41.439l-2.657 6.193c-.662 1.521-.987 2.658-.987 3.418 0 .594.286 1.117.849 1.57.573.455 1.797.752 3.694.889v1.068H29.98v-1.068c1.64-.295 2.697-.67 3.181-1.135.988-.92 2.075-2.805 3.27-5.641L50.24 65.349h1.008l13.661 32.637c1.097 2.627 2.094 4.326 2.993 5.107.899.779 2.153 1.225 3.753 1.322v1.068H56.167v-1.068c1.561-.078 2.618-.346 3.171-.789.553-.436.83-.979.83-1.621 0-.848-.396-2.182-1.166-4.02l-2.371-5.639zm-.81-2.144l-6.658-15.854-6.826 15.854h13.484z"/><path d="M104.479 65.008l.562 11.921h-1.432c-.27-2.098-.641-3.594-1.127-4.502-.768-1.445-1.803-2.507-3.082-3.198-1.291-.69-2.98-1.036-5.077-1.036H87.16v38.833c0 3.121.345 5.064 1.011 5.846.946 1.049 2.417 1.572 4.387 1.572h1.766v1.381H72.771v-1.381h1.804c2.148 0 3.671-.652 4.566-1.957.55-.793.832-2.621.832-5.461V68.193h-6.114c-2.366 0-4.055.179-5.052.524-1.304.474-2.417 1.395-3.338 2.737-.921 1.355-1.471 3.172-1.649 5.475H62.4l.601-11.921h41.478z"/><path d="M110.646 81.675v19.258h10.709c2.785 0 4.637-.418 5.568-1.252 1.252-1.104 1.939-3.041 2.086-5.826h1.324v16.965h-1.324c-.332-2.367-.674-3.889-1.006-4.564-.43-.832-1.141-1.496-2.121-1.975-.982-.477-2.49-.723-4.527-.723h-10.709v16.068c0 2.158.1 3.473.283 3.938.195.467.527.834 1.006 1.117.479.27 1.398.404 2.734.404h8.268c2.748 0 4.76-.184 6-.576 1.25-.381 2.439-1.129 3.594-2.258 1.484-1.484 3.004-3.729 4.562-6.723h1.436l-4.195 12.219h-37.56v-1.324h1.73a6.837 6.837 0 0 0 3.262-.834c.773-.381 1.289-.957 1.57-1.719.27-.771.404-2.342.404-4.709v-31.66c0-3.091-.305-4.992-.932-5.716-.859-.957-2.293-1.436-4.305-1.436h-1.73v-1.337h37.56l.539 10.672h-1.41c-.504-2.563-1.055-4.318-1.668-5.274-.613-.957-1.51-1.693-2.711-2.196-.957-.355-2.65-.539-5.066-.539h-13.371z"/><path d="M161.217 87.709l10.832 16.14c2.996 4.469 5.219 7.289 6.68 8.471 1.447 1.18 3.289 1.828 5.523 1.955v1.371h-21.65v-1.371c1.434-.025 2.502-.178 3.199-.457a3.051 3.051 0 0 0 1.283-1.016c.33-.457.494-.928.494-1.398a4.8 4.8 0 0 0-.33-1.713c-.178-.42-.863-1.512-2.043-3.275l-8.561-12.941-10.564 13.537c-1.117 1.447-1.791 2.4-2.006 2.883-.229.482-.344.99-.344 1.51 0 .801.344 1.449 1.004 1.969.672.521 1.955.826 3.834.902v1.371h-17.893v-1.371c1.271-.127 2.35-.395 3.277-.787a18.931 18.931 0 0 0 4.381-2.604c1.396-1.092 2.984-2.77 4.762-5.029l11.912-15.022-9.932-14.553c-2.705-3.937-5.002-6.527-6.883-7.746-1.891-1.232-4.062-1.879-6.514-1.956v-1.384h23.328v1.384c-1.982.077-3.34.394-4.076.965-.725.571-1.092 1.207-1.092 1.892 0 .927.596 2.26 1.777 4.025l7.746 11.569 8.965-11.353c1.041-1.333 1.676-2.248 1.918-2.743.229-.508.355-1.016.355-1.537s-.152-.978-.457-1.372a2.9 2.9 0 0 0-1.41-1.092c-.572-.216-1.752-.33-3.529-.356v-1.384h17.891v1.384c-1.408.077-2.564.292-3.465.661-1.334.571-2.566 1.346-3.684 2.311s-2.691 2.756-4.725 5.359l-10.003 12.801z"/></g></svg>