<svg xmlns="http://www.w3.org/2000/svg" style="enable-background:new 0 0 180 180" xml:space="preserve" viewBox="0 0 180 180"><path d="M90 0C40.29 0 0 40.29 0 90s40.29 90 90 90 90-40.29 90-90S139.71 0 90 0zm61.98 151.98c-16.56 16.56-38.57 25.67-61.98 25.67-23.41 0-45.43-9.12-61.98-25.67S2.34 113.41 2.34 90c0-23.41 9.12-45.43 25.67-61.98C44.57 11.46 66.59 2.34 90 2.34c23.41 0 45.43 9.12 61.98 25.67 16.56 16.56 25.67 38.57 25.67 61.98.01 23.42-9.11 45.44-25.67 61.99z" style="fill: rgb(200, 16, 46);"></path><path d="M90 5.47C43.31 5.47 5.47 43.31 5.47 90S43.31 174.53 90 174.53s84.53-37.85 84.53-84.53S136.69 5.47 90 5.47zm59.11 143.64c-15.79 15.79-36.78 24.48-59.11 24.48s-43.32-8.7-59.11-24.48C15.1 133.32 6.41 112.33 6.41 90s8.7-43.32 24.48-59.11C46.68 15.1 67.67 6.41 90 6.41s43.32 8.7 59.11 24.48C164.9 46.68 173.59 67.67 173.59 90s-8.69 43.32-24.48 59.11z" style="fill: rgb(200, 16, 46);"></path><path d="M90 25.47c-35.58 0-64.53 28.95-64.53 64.53S54.42 154.53 90 154.53s64.53-28.95 64.53-64.53S125.58 25.47 90 25.47zm0 128.12c-35.12 0-63.59-28.47-63.59-63.59 0-35.12 28.47-63.59 63.59-63.59 35.12 0 63.59 28.47 63.59 63.59 0 35.12-28.47 63.59-63.59 63.59z" style="fill: rgb(200, 16, 46);"></path><path d="M90 29.53c-33.34 0-60.47 27.13-60.47 60.47S56.66 150.47 90 150.47s60.47-27.13 60.47-60.47S123.34 29.53 90 29.53zm7.63 13.22c.58 1.23 1.14 2.39 1.14 3.8 0 .23-.01.44-.04.65-.01.08-.03.14-.05.21-.02.12-.04.24-.08.35-.11.35-.28.64-.49.88 0 0 0 .01-.01.01-.44.48-1.09.73-1.93.73-.69 0-1.25-.14-1.68-.43.06-.11.1-.23.15-.36.04-.1.07-.2.09-.3.01-.05.03-.1.04-.15.02-.09.04-.18.06-.28.01-.08.03-.17.04-.26l.03-.22c.01-.18.03-.36.03-.55-.07-1.18-.54-2.26-1.21-3.33.54-2.13 1.66-4.23 2.81-5.73-.16 2.12.45 3.62 1.1 4.98zm1.55 1.38c.26-.79.45-1.57.46-2.26 1.33 1.46 1.96 2.86 1.96 4.38 0 .24-.02.46-.04.67-.01.06-.01.12-.02.18-.02.18-.05.34-.09.5-.02.08-.04.15-.06.22-.03.11-.07.22-.11.31-.03.08-.07.16-.11.24-.03.05-.06.1-.09.16-.09.15-.2.28-.31.4-.02.02-.04.05-.06.07-.42.4-.98.62-1.67.62-.13 0-.25-.02-.37-.04.24-.26.43-.57.59-.92.1-.22.18-.47.25-.72.02-.09.05-.17.07-.26.02-.1.03-.2.05-.3.03-.24.06-.48.06-.74-.02-.91-.23-1.74-.51-2.51zm23.3 79.06c2 0 3.95-.76 5.24-2.06.86-.86 1.38-1.89 1.52-3.01.22.1.44.23.66.4.02.02.05.02.07.01a.12.12 0 0 0 .05-.05c.42-1.29.12-2.54-.99-4.06-1.09-1.5-3.29-2.42-5.87-2.46h-.18c-3.03 0-4.56 1.33-5.31 2.45-1.04 1.55-1.03 3.37-.58 4.41.01.03.03.04.06.05.03 0 .05-.01.07-.03.23-.28.56-.58.92-.8 1.67 1.42 4.28 1.64 6.29 1.33 1.03-.16 1.79-.55 2.15-1.12.25-.39.3-.85.16-1.33-.3-1.04-2.06-1.41-3.2-1.21-1.07.18-1.98.59-3.52 2.16-.05.05-.11.07-.15.05-.04-.01-.05-.06-.05-.09-.07-.96-.03-2.13-.01-2.71.52-.79 2.03-1.63 3.61-1.63h.04c1.32.01 2.39.27 2.94.71.39.31.91 1.37 1.24 2.23.5 1.31.4 2.12-.39 3.22-.72 1-2.59 2.09-5 2.09-2.3 0-3.94-.5-5.48-1.66h-.01c-.97-1.13-1.07-2.22-.51-6.44.7-5.21.56-11.51.14-15.98-.41-4.4-1.26-9.26-1.91-12.14-.25-1.14-.46-2.04-.49-2.31.02-1.28.54-2.48 1.46-3.38 1.06-1.02 2.55-1.55 4.26-1.52 2.93.05 4.69 1 5.2 2.82.07.24.1 1.34.14 2.61.1 3.18.27 8.49 1.15 14.81 1.36 9.78 2.97 13.38 4.04 15.76.63 1.41 1.05 2.34 1.15 3.89.1 1.51-.37 2.82-1.4 3.89-1.88 1.97-5.62 3.06-10.27 2.98-1.14-.02-2.21-.07-3.25-.13.1-.56.19-1.13.27-1.72.02-.15.05-.4-.07-.49-.12-.1-.37-.03-.51.03-1.45.56-2.76 1.17-3.97 1.82-2.39-.27-4.57-.61-6.7-.95-4.4-.69-8.55-1.35-14.18-1.35-8.14 0-15.17.94-20.91 1.92-1.93-1.5-4.12-2.34-6.42-2.81.54-.74.91-1.62 1.09-2.64.22-1.26.03-3.09-.23-5.63-.41-4.03-.52-8.67.21-15.33.68-6.24 1.37-10.13 1.78-12.04.08-.37.17-.66.25-.92 3.03-.35 5.89-.78 8.65-1.19 4.59-.7 8.92-1.35 12.67-1.35 7.05 0 12.39.76 17.11 1.43 2.83.4 5.3.75 7.76.89.06.32.15.69.28 1.12.78 2.66 1.46 7.69 1.82 12.03.37 4.41.41 10.67-.3 15.77-.73 5.26-.46 6 .89 7.46 1.6 1.73 4.19 2.14 6.03 2.19l.49.01zm12.78-54.72c3.67 3.07 5.67 7.01 5.62 10.86-.03 2.58-.92 4.64-1.97 6.12-.49.42-.96.85-1.39 1.31.63-3.59.77-9.07.01-11.82a.16.16 0 0 0-.19-.11c-.08.02-.13.1-.12.18.4 2.2.53 6.18-.97 12.71-.5-1.81-1.26-3.51-2.11-5.01-.53-2.93.04-5.62.56-8.1.45-2.02.76-4.26.56-6.14zm4.42 31.2c-.05-.06-.14-.07-.21-.03-2.56 1.74-5.75 5.55-7.7 8.54.91-1.85 1.55-4.07 1.53-6.5 0-.14-.01-.27-.02-.41.31-.47.67-.92 1.08-1.33.82-.82 2.44-1.78 4.14-2.8 2.03-1.21 4.28-2.54 5.85-4.02-.42 3.05-1.71 9.28-5.43 13.03l-.41.12c-2.06.59-4.01 1.15-5.57 1.9 2.71-3.95 4.28-5.87 6.72-8.3.06-.05.07-.14.02-.2zm1.6-5.27c-1.04.7-2.16 1.37-3.23 2-.2.12-.4.24-.59.35-.22.09-.44.19-.67.27 1.25-3.1 2.59-5.69 4.44-8.58.04-.07.03-.16-.04-.21-.07-.05-.16-.04-.21.02-1.41 1.61-3.04 3.7-4.87 8.19-.01-.03-.01-.07-.02-.1.85-2.35.93-4.7.55-6.92 1.03-2.08 2.88-3.45 4.97-5.04 1.02-.78 2.12-2 3.01-2.91.45 5.15.27 9.7-3.34 12.93zm-7.49 4.88c-.01.01-.03.03-.05.04-.12.12-.23.25-.35.38.09-3.57-.31-9.53-1.58-12.91a.158.158 0 0 0-.19-.1.15.15 0 0 0-.11.18c.62 3.47.84 6.26.88 10.07-.68-1.78-1.74-3.5-3.17-5.14-.36-3.07-.02-5.99.35-8.86.21-1.64.42-3.2.48-4.71 3.21 3.79 9.17 13 3.74 21.05zm-1.37 2.41c.03 3.4-1.31 6.37-2.84 8.39-.22-.68-.45-1.44-.67-2.3.31-3.64.34-7.57-.15-9.33-.02-.08-.1-.13-.17-.11-.08.01-.14.08-.13.16.06 2.7 0 4.81-.16 6.69-.4-1.85-.79-4.06-1.17-6.76-.16-1.18-.31-2.32-.43-3.41.35-1.37.63-2.69.61-3.96 3.22 2.79 5.07 6.82 5.11 10.63zm-19.38 25.57a.155.155 0 0 0-.21.01 104.88 104.88 0 0 0-6.95 7.91c.72-1.63 1.27-3.57 1.55-5.88 2.04-2.38 4.92-4.31 8.6-5.73-.82 5.47-2.93 9.67-6.38 12.73-1.19-.08-2.39-.06-3.6.14 1.14-1.53 2.37-3.06 3.58-4.56 1.28-1.58 2.48-3.08 3.44-4.4.04-.08.03-.17-.03-.22zm-11.12 5.92c-.08-.03-.16.01-.2.09-1.24 2.92-3.16 5.6-5.83 8.17-.46-7.74 3.77-10.35 8.24-13.33.87-.58 1.76-1.18 2.63-1.82-.13 5.54-1.75 13.47-10.01 15.89 2.59-3.3 4.18-5.39 5.27-8.8a.17.17 0 0 0-.1-.2zm-5.85-9.78c2.38.17 4.55.45 6.69.77l.44 3.54c-2.58 1.64-5.14 3.37-6.71 6.17l-.42-10.48zm20.22 2.48c1.09.07 2.22.12 3.42.14h.17c-1.31 1.07-2.8 2.15-4.55 3.3.39-1.08.7-2.23.96-3.44zm4.76.12c1.62-.05 3.1-.23 4.43-.56-.46.65-.96 1.28-1.5 1.87-2.38.31-4.55.89-6.51 1.71 1.35-.98 2.57-2.01 3.58-3.02zm-32.73-2.73 1.31-.03.19 14.25c0 .09.07.15.16.15s.16-.07.16-.15l.19-14.26c.33 0 .66-.01.99-.01h.31l-.32 10.08c0 .09.06.16.15.16h.01c.08 0 .15-.06.16-.15l.6-10.09c.42.01.85.01 1.26.02l-1.06 16.92h-4.82l-1.06-16.84c.4-.02.8-.04 1.2-.05l.57 10.36c0 .08.07.15.16.15h.01c.09 0 .15-.08.15-.16l-.32-10.35zm-.14 17.65h3.65c1.33 0 1.56.14 1.76.26.32.19.41.37.41.85s-.09.66-.41.85c-.18.11-.43.26-1.64.26h-3.88c-1.21 0-1.46-.15-1.65-.26-.32-.19-.41-.37-.41-.85s.09-.66.4-.85c.21-.12.44-.26 1.77-.26zm-10.26-8.11c.88 1.34 3.35 5.62 5.03 9.04-.04-.02-.07-.03-.11-.05-1.57-1.6-3.17-2.65-4.76-3.32-3.89-4.05-4.15-9.28-4.13-12.2.94.87 1.98 1.66 2.99 2.43 3.91 2.97 7.94 5.64 7.17 13.11-.27-.54-.63-1.15-1.12-2-.27-.46-.58-.99-.94-1.63-.95-1.66-2.73-4.76-3.9-5.6a.166.166 0 0 0-.2.01c-.07.06-.07.15-.03.21zm-11.37.28c1.52 1.68 3.67 3.12 6.22 4.2-.98-.08-1.95-.1-2.89-.12-1.04-.02-2.06-.05-3.03-.15-2.81-1.4-4.98-3.5-6.55-6.33 5-.63 9.49-.24 13.79 2.74.49 1.49 1.18 2.83 2.03 4.04-4.13-1.15-7.26-3.11-9.37-4.6-.07-.05-.15-.04-.21.02-.04.05-.04.14.01.2zm-21.93-20.38c.96.69 2.15 1.86 3.32 3.36-.22.82-.33 1.63-.28 2.67.03.48.09.96.2 1.44l-.8-.03c-1.4-.74-2.6-1.9-3.79-3.58-.61-.87-1.16-1.85-1.73-2.88-.85-1.52-1.78-3.2-3.11-4.8.66.11 1.38.21 2.12.3 3.09.41 6.6.87 8.91 2.91-.22.55-.42 1.05-.61 1.5-.25.6-.46 1.12-.64 1.62-1.09-1.22-2.24-2.16-3.43-2.77-.07-.04-.16-.01-.2.06-.05.06-.03.16.04.2zm6.33-13.6c-.08-.03-.16.02-.19.1-.93 2.61-1.94 6.25-1.63 11.45-4.93-7.82-.19-15.13 3.64-19.21.16 1.34.47 2.7.8 4.12a69.01 69.01 0 0 1-.57 3.52c-1.06 5.57-2.09 9.07-2.96 11.51-.33-3.29.01-7.08 1.03-11.3 0-.09-.04-.17-.12-.19zm.22-7.21c-1.43 1.66-2.5 3.26-3.27 4.79-.02.02-.05.04-.07.06.64-3.71 1.21-9.23.8-11.39-.02-.08-.1-.14-.18-.13-.08.01-.14.09-.13.17.21 1.9-.4 6.55-1.34 10.79-.14-.19-.27-.37-.4-.55-.39-1.28-.97-2.45-1.74-3.51-.36-1.51-.14-2.97.51-4.9.37-1.1.75-1.6 1.23-3.18.56-1.84 1.25-4.4 1.66-6.5.08.18.16.36.25.55 1.86 4.14 4.18 9.15 2.68 13.8zm-6.66-4.88c-.44 1.32-.69 2.44-.71 3.52-1.58-3.65-2.41-7.3-2.71-11.92a.17.17 0 0 0-.15-.15c-.08.01-.15.06-.16.14-.47 3.72.49 8 1.66 11.04-.61-.48-1.27-.93-1.99-1.35-4.44-6.5-1.19-15.29.69-19.07.4 1.39.96 3.61 1.52 5.08 1.27 3.29 2.62 6.74 2.6 10.89-.27.65-.51 1.1-.75 1.82zm1.8 14.32c-1.73-3.29-5.07-8.34-7.62-10.46a.155.155 0 0 0-.21.01c-.06.06-.06.15-.01.21 2.49 3 4.43 6.12 6.74 10.29-1.58-1.77-3.46-2.98-5.14-4.06-.79-.51-1.58-1-2.3-1.51-1.71-2.36-2.3-4.96-2.32-8.69 7.86 2.41 11.32 6.95 10.86 14.21zm-6.72-3.27c2.36 1.51 4.92 3.16 6.56 6.14.07 1.58.42 3.01.91 4.27-.01-.01-.01-.02-.02-.02-1.62-1.91-3.29-3.88-7.22-7.14a.155.155 0 0 0-.21.01c-.06.06-.06.15-.01.21.5.61 1.32 1.5 2.27 2.53 1.54 1.67 3.42 3.72 4.75 5.46-1.21-.42-2.49-.68-3.74-.89-1.47-.69-2.94-1.69-4.17-3.09-2.33-2.66-3.67-6.63-3.39-10.95 1.05 1.17 2.78 2.52 4.27 3.47zm10.13 15.89c1.03-2.49 2.58-6.26 4.19-14.7 1.27-6.66 1.24-11.94 1.22-15.09-.01-1.53-.01-2.74.14-3.16.95-2.54 3.9-3.41 6.2-2.94 4.01.82 4.99 3.76 5.08 4.92.06.68-.1 1.37-.42 2.74-.44 1.91-1.17 5.8-1.93 12.02-.82 6.7-.78 11.35-.4 15.39.22 2.35.39 4.2.18 5.32-.21 1.1-.67 2-1.37 2.69-1.11-.16-2.23-.25-3.36-.3-.18-.02-.38.04-.46.19-.09.17-.01.39.16.6.18.23.34.48.5.75-.39.05-.8.08-1.23.09h-.11c-2.04 0-4.27-1.02-5.34-2.46-.76-1.03-.85-1.74-.39-3.15.24-.74.82-1.69 1.28-2.12.55-.51 1.67-.81 3-.81 1.95 0 3.56.77 4.11 1.51-.05.84-.11 1.54-.23 2.42 0 .03-.02.08-.05.09-.04.01-.1-.01-.15-.05-1.08-.97-3.08-1.6-4.31-1.6h-.06c-1 .02-1.86.31-2.3.78a1.3 1.3 0 0 0-.36.99c.05.92.61 2 3.01 2h.15c2.28-.04 4.32-.67 5.18-1.58.35.18.73.43 1.11.73.02.02.05.02.07.01a.12.12 0 0 0 .05-.05c.39-1.07.33-2.8-.69-4.23-.75-1.06-2.28-2.31-5.31-2.31h-.19c-2.28.04-4.46.94-5.82 2.4-1.84 1.98-1.24 5.61-.16 6.62.02.02.04.03.07.02.02 0 .05-.02.06-.04.11-.24.26-.51.47-.75 1.32 1.82 3.55 2.82 6.41 2.82h.22c.75-.01 1.45-.1 2.1-.24.15.28.29.58.46.9.23.46.48.95.75 1.46-1.37.22-2.52.37-3.41.38-4.39.09-8.97-2.22-9.24-7.53-.09-1.79.34-2.84 1.12-4.73zm10.37 7.81c4.78.3 9.79 1.38 13.08 6.94.1 1.22.29 2.38.56 3.46-.36-.22-.71-.42-1.07-.6-4.1-5-6.38-6.5-8.45-7.12a.163.163 0 0 0-.19.09c-.03.07 0 .16.07.2 1.53.89 4.16 2.73 6.55 5.94-1.96-.71-3.92-1.01-5.85-1.06-1.59-1.86-2.62-3.89-3.5-5.63-.43-.83-.81-1.58-1.2-2.22zm16.71 5.94.44-3.58c2.11-.26 4.33-.49 6.68-.65l-.41 10.36c-1.51-2.55-3.87-4.18-6.08-5.7-.21-.14-.42-.28-.63-.43zm8.4-57.33c-.02-.42.21-.77.69-.77.42 0 .66.24.67.74l.33 11.16-1.13.06-.56-11.19zm4 .2c-.02-.8.3-1.03.82-1.03.55 0 .82.37.77 1.06l-.13 10.89c-.44-.01-.89-.02-1.34-.02l-.12-10.9zm3.92 11.01.34-11.24c.01-.51.27-.8.69-.8.47 0 .67.41.65.83l-.56 11.27-1.12-.06zm1.74.1.66-11.66c.05-.99-.23-1.58-1.33-1.58-.97 0-1.41.48-1.44 1.56l-.26 11.56c-.39-.02-.79-.03-1.2-.04l.2-11.57c.01-.46-.11-.91-.4-1.2-.27-.27-.67-.34-1.1-.34-.43 0-.87.1-1.14.37-.28.29-.37.72-.36 1.17l.2 11.53h-.28c-.3 0-.6.01-.9.02L87.25 70c-.03-1.08-.4-1.52-1.36-1.52-.38 0-.84.11-1.07.36-.27.29-.36.7-.33 1.18l.65 11.59c-.4.03-.8.06-1.21.1L83 66.95h14l-.93 14.83-1.21-.09zm1.99-15.86c-.51.07-1.45.08-2.95.08h-7.8c-1.5 0-2.44-.01-2.95-.08-.8-.12-1.01-.26-1.18-.55-.2-.48-.29-.83-.3-1.09h16.66c-.01.26-.1.6-.28 1.05-.19.33-.4.47-1.2.59zm-15.38-2.64c-.68 0-.82-.47-.82-.86v-.17c0-.38.28-.91.82-.91h17.14c.48 0 .73.31.73.91v.17c0 .48-.36.86-.81.86H81.47zm-1.1-6.84c.53-.1 1.06-.13 1.46-.07l.14.59c.13.86-.04 1.28-.59 1.55l-.3.12-.71-2.19zm17.53-1.11c-.19 0-.35.13-.38.32l-.24 1.21c-.1.87-.05 1.84 1.05 2.38l.85.34c.09.04.16.07.13.3l-.23.65-18.13.03-.24-.68c-.03-.23.04-.26.13-.3l.87-.35c1.17-.57 1.16-1.63 1.04-2.41l-.26-1.1a.396.396 0 0 0-.37-.3l-2.35-.09c-.73-.02-.82-.17-.88-.38l-.18-.77h22.64l-.19.76c-.06.24-.1.37-.75.39H97.9zm1.73 1.1-.72 2.2-.27-.11c-.55-.27-.7-.66-.6-1.54l.13-.68c.38-.05.9 0 1.46.13zm.81-3.37H79.56c-3.2 0-3.33-.07-3.66-.26-.22-.13-.35-.32-.35-.89 0-.41.13-.69.39-.86.33-.21 1.19-.29 5.32-.29h17.49c4.14 0 4.99.08 5.32.29.26.17.39.45.39.86 0 .57-.14.76-.35.89-.34.19-.46.26-3.67.26zm-19.42-7.74c-.15.48-.24.99-.24 1.56 0 .22.02.42.05.62l.03.19c.03.15.07.29.11.43.03.11.07.21.11.32.15.36.34.68.58.96-.28.21-.65.33-1.1.33a2.1 2.1 0 0 1-.92-.21c-.15-.07-.3-.17-.44-.31l-.03-.03a.934.934 0 0 1-.16-.18c-.02-.02-.03-.04-.05-.06a4.6 4.6 0 0 1-.15-.23c-.01-.02-.02-.03-.03-.05-.05-.1-.1-.21-.15-.33-.01-.03-.02-.05-.03-.08-.03-.1-.06-.2-.09-.31l-.03-.14c-.02-.1-.04-.22-.05-.33-.01-.05-.01-.1-.02-.15-.02-.17-.03-.35-.03-.54 0-1.72.84-3.82 2.06-5.24-.26 1.6.23 3.02.58 3.78zm2-8.45c1.21.66 2.24 1.76 3 3.12-.17.5-.35.98-.54 1.44-.45 1.11-.91 2.27-1.03 3.81-.02.3-.02.58-.01.86 0 .05 0 .09.01.14.02.27.05.54.1.79 0 .01.01.03.01.04.12.53.31 1.02.58 1.44.13.2.27.39.43.56.01.01.03.02.04.04-.38.15-.82.23-1.32.23-1.43 0-2.26-1.07-2.44-2.25-.03-.17-.04-.34-.04-.51 0-1.05.25-1.58.71-2.54l.05-.1c1.48-3.08 1.62-5.34.45-7.07zM93.84 46.8c0 .22-.01.41-.03.6l-.03.2c-.02.11-.04.22-.06.32-.02.07-.04.15-.06.21-.03.09-.06.17-.09.24-.03.06-.05.13-.08.18-.38.7-1.07 1.03-2.13 1.03-.96 0-1.62-.37-2.01-1.1-.06-.12-.12-.24-.16-.38l-.03-.09c-.04-.12-.07-.24-.1-.38-.02-.08-.03-.16-.04-.24-.02-.11-.04-.21-.05-.33-.02-.21-.03-.44-.03-.68 0-1.19.41-2.52.8-3.82.25-.82.49-1.61.6-2.29.22.32.49.69.8 1.1 1.14 1.53 2.7 3.6 2.7 5.43zm-.79-4.29c-.41-.57-.85-1.14-1.32-1.74-.6-.76-1.21-1.55-1.81-2.41-.04-.06-.11-.08-.18-.06-.07.02-.11.09-.1.16.13 1.49-.37 2.89-.86 4.25-.43 1.21-.88 2.45-.88 3.76 0 .24.02.46.04.68l.03.24.06.36c.05.26.12.5.21.73.09.23.19.45.31.65-.64-.12-1.14-.36-1.54-.67-.65-.52-1.01-1.24-1.18-2.02 0-.01-.01-.03-.01-.04-.03-.15-.06-.3-.08-.45v-.01c-.02-.14-.03-.28-.04-.42 0-.03 0-.07-.01-.1-.01-.14-.01-.28-.01-.42 0-1.1.39-2.18.79-3.32.48-1.34 1.02-2.85 1.02-4.67 0-2.25-.98-3.81-1.92-4.79 4.65 1.79 7.06 5.42 7.99 8.91-.19.44-.36.9-.51 1.38zM40.7 59.2l32.7-10.75c.08-.03.12-.11.1-.19a.15.15 0 0 0-.18-.11L44.6 53.7c1.76-2.2 3.68-4.27 5.75-6.2l24.06-3.07c.08-.01.14-.08.14-.16s-.07-.15-.15-.15l-18.62-1.1c2.11-1.54 4.33-2.94 6.64-4.19l13.61 1.82h.02c.07 0 .13-.05.15-.12.02-.08-.02-.15-.09-.19l-8.98-3.79c2.07-.89 4.2-1.65 6.38-2.3l5.22 3.28c.03.02.05.02.08.02.04 0 .08-.02.11-.05.05-.06.06-.14.01-.2l-2.79-3.77c2.68-.66 5.44-1.12 8.25-1.4 1.31 1.2 2.17 2.89 2.17 4.44 0 .86-.1 1.59-.24 2.25-1.45-2.04-3.44-3.3-5.08-3.57a.148.148 0 0 0-.16.08c-.03.06-.02.14.03.18 1.49 1.42 2.03 2.8 1.78 4.61-.18 1.35-.67 2.36-1.13 3.33l-.21.45c-.51-1.04-.74-2.25.06-4.23.03-.06.01-.13-.04-.18-.05-.04-.13-.05-.18-.01-2.33 1.42-3.96 5.28-3.96 7.86 0 1.23.28 2.05.88 2.54-2.03.05-2.43.16-2.78.39-.49.31-.75.84-.75 1.52 0 .53.08 1.19.75 1.57.41.23.65.33 2.31.36l.31 1.31c.2.69.72.89 1.31.94l.93 2.86c-.26.16-.54.47-.43 1.1 0 .02.01.04.02.06l.35.98c0 .01.01.01.01.02-.28.32-.43.74-.43 1.15v.17c0 .77.38 1.33 1 1.54-.08.53.12 1.14.38 1.76.24.41.53.64.93.79l.96 15.38c-1.09.12-2.21.26-3.36.42l.73-9.93c.01-.08-.05-.15-.13-.17-.08-.01-.16.04-.18.11L77.5 82.53c-.62.09-1.24.19-1.86.28-1.16.18-2.35.35-3.55.53l6.06-17.7a.148.148 0 0 0-.08-.19c-.07-.03-.16-.01-.2.06L67.48 83.29c0-.06.01-.12 0-.18-.09-1.08-.79-3.46-3.36-4.87l12.19-18.15c.05-.07.03-.16-.03-.21a.166.166 0 0 0-.21.01L59.68 77.23c-2.2.17-4.43 1.33-5.29 3.64-.16.42-.2 1.12-.2 2.17l-2.13 2.25c-.49-1.91-1.28-3.77-2.05-5.49l23.66-23.07c.06-.06.06-.15.01-.21-.05-.06-.14-.07-.21-.03L44.58 76.94c-.38-1.11-.79-2.17-1.19-3.21-.32-.83-.63-1.63-.91-2.42L72.35 52.9c.07-.04.09-.13.06-.2a.16.16 0 0 0-.2-.07l-35.82 14.9c1.21-2.91 2.66-5.69 4.31-8.33zm-7.35 17.74 5.15-3.18c-.79 2.45-1.37 5.36-1.15 8.29l-5.33 3.77c.22-3.03.67-6 1.33-8.88zm.39 27.73c-.64-2.48-1.13-5.02-1.44-7.61l2.38-2.32c-.22 2.93.17 5.52 1.12 7.76l-2.06 2.17zm9.59 19.98a58.557 58.557 0 0 1-5.01-8.02l2.11-3.13c.12.21.23.42.35.62.59 1.05 1.14 2.05 1.78 2.96.83 1.18 1.68 2.12 2.6 2.86-.47-.08-.93-.16-1.39-.28-.16-.04-.41-.04-.52.08-.11.12-.06.35 0 .5.32.81.76 1.59 1.27 2.35l-1.19 2.06zm.8-4.1c1.26.25 2.62.4 3.96.48.76 2.37 2.54 4.47 5.43 5.49l-.59.06c-.77.08-1.56.15-2.34.22-2.82-1.51-5.26-3.82-6.46-6.25zm5.86 7.01c.9-.07 1.8-.16 2.67-.25 1.01-.1 2.02-.2 3.02-.27.6.08 1.23.14 1.9.14h.27c.56-.01 1.22-.07 1.96-.16.76.06 1.51.15 2.26.3.46.76.98 1.54 1.59 2.31-.97.02-1.93.1-2.88.21-1.26-.24-2.56-.37-4.31-.47-.08 0-.15.05-.16.13-.01.08.04.16.12.17l.17.04c1.01.22 1.89.42 2.7.61 0 .06.01.12.04.18.7 1.36 1.53 2.57 2.48 3.64-4.12-.23-8.24-1.96-11.83-6.58zM62 140.94c-2.77-1.53-5.4-3.27-7.87-5.21l.9-2.63c2.04 1.15 4.53 1.9 7.65 1.91.23.23.47.45.72.66l-1.4 5.27zm11.09 4.19c-3.76-.84-6.86-3.53-9.03-7.81 1.78.62 3.75.67 5.81.71 3.9.09 8.32.19 12.44 4.45l.02.06c-3.06.33-7.91-.14-11.59-1.72-.07-.03-.15 0-.19.06-.04.07-.03.15.03.2 2.52 2.19 6.72 2.73 10.24 2.73.34 0 .67-.01 1-.02-1.86 1.11-5.16 2.14-8.73 1.34zm13.19 1.55c-.59.21-2.64.9-3.67 1.18-1.21.32-1.79.17-1.96-.29-.19-.53-.03-.89.89-1.25.54-.21 4.17-1.64 5.02-1.98-.23.48-.36 1.01-.36 1.55.01.28.04.54.08.79zM90 148.8c-1.88 0-3.01-1.18-3.01-3.15 0-.58.16-1.15.45-1.64.98-.17 3.87-.2 5.1-.01.29.5.46 1.07.46 1.66.01 1.99-1.09 3.14-3 3.14zm9.34-1.23c-.17.46-.74.61-1.96.29-1.03-.27-3.07-.97-3.67-1.18.04-.25.06-.51.06-.79 0-.54-.13-1.06-.36-1.55l5.02 1.98c.94.36 1.11.72.91 1.25zm-.52-4.02c3.3-1.79 7.23-2.8 11.7-2.98.08 0 .15-.07.15-.15 0-.08-.06-.15-.14-.16-3.14-.37-6.78.13-10.32 1.36 1.5-.87 2.98-2.12 4.22-3.89 2.87-1.02 5.79-.6 8.63-.17 1.3.2 2.95.25 4.27.31-3.66 4.15-10.61 9.63-18.51 5.68zm21.76-4.12-.74-2.45c3.33-.92 5.97-2.72 8.03-4.82l.55 1.45c-2.44 2.15-5.06 4.1-7.84 5.82zm-7.5-2.73c-.71-.1-1.44-.21-2.18-.29 3.31-2.18 8.69-4.42 13.47-5.57.08-.02.13-.1.12-.18-.01-.08-.09-.13-.17-.13-3.7.43-7.97 1.83-11.62 3.75.56-.76 1.07-1.58 1.52-2.44 3.94-2.92 9.49-4.4 16.05-4.09-4.12 6.43-9.99 9.53-17.19 8.95zm16.03-9.64c-1.34-.03-2.62.02-3.86.13.46-.56.88-1.13 1.27-1.72 3.73-1.47 6.5-3.29 8.23-5.45.05-.06.05-.16-.01-.21a.145.145 0 0 0-.21 0c-.81.74-1.97 1.57-3.38 2.38.88-1.16 1.28-2.51 1.18-4.05 0-.03-.01-.05-.01-.08.82-.15 1.64-.28 2.46-.39 1.26-.18 2.69-.57 3.92-.88-1.59 4.49-4.49 9.14-9.59 10.27zm8.77-4.1-.64-1.05c.9-1.48 1.72-3.27 2.41-5.43.05-.16.01-.33-.1-.44a.425.425 0 0 0-.44-.11c-.88.27-1.8.45-2.75.61 1.6-.95 2.97-2.16 4.11-3.47l1.73 2.51a58.359 58.359 0 0 1-4.32 7.38zm-4.69-5.93c-.33.05-.65.11-.98.17-.15-.89-.4-1.62-.74-2.41 2.36-1.32 5.15-3.28 6.46-4.76.06-.06.05-.16-.01-.22a.157.157 0 0 0-.22 0c-1.46 1.42-3.55 2.72-6.62 4.12-.32-.71-.68-1.53-1.08-2.6.76-.84 1.7-1.55 2.99-2.21 1.53-.79 3.52-1.47 5.69-2.09 1.54-.44 3.4-1.05 4.91-1.61-.77 3.95-4.51 9.57-10.4 11.61zm13.29-13.24-3.09-3.2c.87-2.21 1.46-4.61 1.8-7.01l2.63 2.48c-.28 2.63-.73 5.21-1.34 7.73zm1.41-19-2.59-1.74c-.05-.67-.11-1.38-.2-2.12-.02-.16-.05-.43-.21-.47-.16-.05-.28.01-.39.14-.35.4-.73.79-1.12 1.17l-1.71-1.16c.05-.4.08-.82.08-1.25.02-1.94-.42-4.47-2.14-7.14l6.87 4.04c.68 2.76 1.15 5.61 1.41 8.53zm-41.23-35.47 33.14 10.69c1.43 2.38 2.7 4.86 3.79 7.44l-35.8-14.33c-.08-.03-.16 0-.2.08-.04.07-.01.16.06.2l26.86 15.8c.1 1.65-.26 3.4-.65 5.23-.06.26-.11.52-.17.78L106.96 57.2c-.07-.04-.16-.03-.21.03-.05.06-.04.16.02.21l22.49 21.15c-.06 1.35-.25 2.77-.44 4.25-.1.77-.2 1.55-.29 2.35l-2.66-2.75c-.02-.74-.03-1.15-.07-1.37-.34-1.8-1.98-3.12-4.61-3.48l-16.93-17.54a.155.155 0 0 0-.21-.01c-.06.05-.08.14-.03.21L116.4 78.2c-.58.28-1.1.63-1.55 1.07-.92.9-1.5 2.05-1.68 3.33l-10.64-17.39c-.04-.07-.13-.09-.2-.06-.07.04-.11.12-.08.2l6.92 18.04c-1.13-.14-2.29-.3-3.53-.48-.73-.1-1.48-.21-2.25-.31l-3.42-11.29a.15.15 0 0 0-.18-.11c-.08.02-.13.09-.13.17l1.02 10.88c-1.22-.15-2.49-.29-3.83-.4l.97-15.42c.4-.15.7-.39.95-.83.23-.56.44-1.19.35-1.73.59-.24 1.01-.83 1.01-1.52v-.17c0-.52-.14-.94-.4-1.23l.33-.91c.01-.02.01-.04.02-.06.11-.63-.17-.94-.43-1.1l.93-2.85c.66-.04 1.14-.24 1.34-.97l.32-1.3c1.63-.03 1.87-.12 2.27-.36.66-.38.75-1.04.75-1.57 0-.68-.26-1.21-.75-1.52-.36-.23-.76-.35-2.9-.39.66-.57.95-1.56.95-3.05 0-2.38-1.25-4.88-3.27-6.52-.05-.04-.12-.05-.17-.02-.06.03-.09.09-.08.15.08.78-.1 1.59-.38 2.39-.07-.14-.13-.28-.2-.43-.84-1.77-1.7-3.6-.99-6.37a.143.143 0 0 0-.07-.17.138.138 0 0 0-.18.02c-1.01.9-2.04 2.17-2.88 3.67-1.28-3.18-3.82-6.06-7.78-7.61 1.14-.07 2.29-.1 3.45-.1 1.69 0 3.37.08 5.03.22l-.85 2.81c-.02.07.01.15.08.18.02.01.05.02.07.02.05 0 .09-.02.12-.06l2.31-2.78c1.4.16 2.78.37 4.15.63l-2.1 2.99c-.04.06-.04.15.02.2.03.03.07.04.11.04.03 0 .06-.01.09-.03l3.82-2.81c1.43.32 2.83.7 4.22 1.12l-4.67 3.96c-.06.05-.07.14-.03.2.03.05.08.07.13.07.02 0 .04 0 .06-.01l7.47-3.23c1.83.67 3.62 1.43 5.36 2.28l-11.04 4.41c-.08.03-.11.11-.09.19.02.07.08.11.15.11h.03l14.49-2.83h.01c2.3 1.32 4.5 2.8 6.59 4.42l-19.14 1.24c-.08.01-.15.07-.15.16 0 .08.06.15.15.16l22.83 1.55c2.24 2.05 4.32 4.27 6.22 6.65l-28.69-4.71a.165.165 0 0 0-.18.12c-.04.07 0 .15.08.17z" style="fill: rgb(200, 16, 46);"></path><path d="m83.27 93.25 1.88-.1c.27-.01.4.12.41.39 0 .18.01.27.01.45.01.27-.13.42-.4.43l-2.89.15c-.27.01-.41-.12-.41-.39v-4.96c0-.27.13-.42.39-.43.23-.01.34-.02.56-.03.26-.01.39.12.39.39.04 1.64.05 2.46.06 4.1zM89.3 94.39h-.53c-.31 0-.44-.09-.55-.39-.76-2.02-1.12-3.03-1.84-5.04-.08-.21.05-.39.26-.39h.65c.3 0 .42.09.52.39.5 1.43.75 2.15 1.27 3.58.51-1.44.76-2.16 1.24-3.6.1-.3.22-.39.52-.39h.57c.2 0 .33.18.26.39-.7 2.03-1.07 3.04-1.82 5.07-.12.28-.25.37-.55.38zM93.88 94.4c-.3-.01-.45-.02-.74-.04-.18-.01-.28-.2-.18-.36.69-1.04 1.04-1.55 1.71-2.59-.59-1-.88-1.5-1.45-2.5-.09-.16.01-.35.19-.34.31.02.47.02.78.04.32.02.43.09.59.39l.83 1.48c.34-.56.51-.84.84-1.4.16-.28.27-.34.59-.33.29.01.44.02.73.04.17.01.28.2.18.36-.59.94-.89 1.41-1.49 2.35.66 1.1 1 1.65 1.68 2.75.1.16-.01.35-.18.34-.32-.02-.49-.02-.81-.04-.33-.02-.45-.09-.62-.39-.4-.7-.6-1.05-1-1.74-.41.66-.61.99-1.02 1.65-.18.29-.29.35-.63.33zM72.54 105.96c-.22.03-.34.04-.56.07-.32.04-.46-.03-.59-.31-.87-1.9-1.29-2.85-2.11-4.75-.09-.19.04-.39.26-.42.27-.04.41-.06.68-.09.31-.04.45.03.56.31.57 1.35.86 2.03 1.45 3.38.48-1.5.72-2.24 1.19-3.74.1-.31.22-.42.53-.46.24-.03.36-.05.6-.08.21-.03.35.13.28.35-.68 2.11-1.03 3.17-1.74 5.28-.09.31-.22.41-.55.46zM77.45 105.35c-.28.02-.42-.11-.43-.38l-.05-4.95c0-.27.14-.42.41-.45 1.31-.11 1.96-.16 3.26-.27.27-.02.41.11.42.38.01.17.01.25.01.41.01.27-.13.42-.4.45-.91.08-1.36.11-2.27.19.01.4.01.6.02 1 .63-.05.95-.08 1.58-.13.27-.02.42.11.42.38 0 .14.01.22.01.36.01.27-.13.42-.4.45-.63.05-.95.08-1.59.13.01.45.01.67.02 1.11.93-.08 1.39-.11 2.32-.19.28-.02.42.11.43.38.01.17.01.25.01.41.01.27-.13.42-.41.45-1.33.11-2.01.16-3.36.27zM84.46 104.89c-.24.01-.36.01-.61.02-.28.01-.42-.13-.42-.4.01-1.99.01-2.98.02-4.97 0-.27.14-.42.41-.43.75-.02 1.13-.04 1.89-.06 1.23-.04 2.02.66 2.04 1.74.01.69-.33 1.24-.94 1.54.46.83.69 1.25 1.16 2.08.1.17-.02.36-.22.37-.3.01-.44.01-.74.02-.34.01-.45-.06-.61-.35-.38-.71-.56-1.07-.93-1.78-.26.01-.39.01-.65.02 0 .71.01 1.06.01 1.77.01.28-.13.42-.41.43zm1.27-4.67c-.35.01-.52.02-.87.03 0 .52 0 .78.01 1.31.35-.01.52-.02.87-.03.36-.01.62-.29.62-.67 0-.39-.27-.65-.63-.64zM90.5 104.79c-.28 0-.42-.14-.42-.42.01-1.99.01-2.98.02-4.97 0-.27.14-.41.41-.41h.59c.27 0 .41.14.41.42.01 1.99.01 2.98.02 4.97 0 .27-.14.41-.42.41h-.61zM95.52 104.91c-.28-.01-.42-.16-.41-.43.03-1.64.04-2.46.06-4.09-.52-.02-.78-.04-1.29-.06-.27-.01-.41-.16-.4-.43 0-.18.01-.27.01-.45.01-.27.15-.41.41-.39 1.59.07 2.38.11 3.98.19.27.01.41.16.41.43v.45c0 .27-.14.41-.41.39-.52-.02-.78-.04-1.29-.06-.01 1.64-.01 2.46-.03 4.09 0 .27-.15.41-.42.39-.25-.02-.37-.02-.62-.03zM99.87 105.15c-.25-.02-.37-.03-.61-.06-.22-.02-.35-.21-.25-.41.88-1.94 1.3-2.92 2.13-4.86.12-.29.25-.36.56-.34l.58.05c.31.03.44.13.55.44.75 2.09 1.13 3.13 1.91 5.22.08.21-.05.38-.27.36-.28-.03-.42-.04-.7-.06-.32-.03-.46-.13-.56-.44-.1-.3-.15-.45-.26-.75l-2.2-.2c-.12.28-.17.42-.29.7-.14.3-.27.37-.59.35zm2.67-2c-.26-.77-.39-1.16-.64-1.93-.29.72-.43 1.08-.72 1.8.54.05.82.08 1.36.13zM75.46 115.96c-.23.02-.35.03-.58.06-.33.03-.47-.04-.61-.33-.89-1.93-1.32-2.89-2.16-4.82-.09-.2.04-.39.27-.41.28-.03.42-.04.7-.07.32-.03.46.04.58.33.58 1.37.88 2.06 1.49 3.43.5-1.48.75-2.23 1.23-3.71.1-.31.23-.41.55-.44.25-.03.37-.04.62-.06.22-.02.36.14.29.36-.71 2.09-1.07 3.14-1.81 5.23-.1.29-.24.4-.57.43zM80.54 115.51c-.29.02-.44-.11-.44-.39-.04-1.98-.05-2.98-.08-4.96 0-.27.14-.42.41-.44.25-.02.37-.02.62-.04.28-.02.42.11.43.39.05 1.98.07 2.98.12 4.96.01.27-.14.42-.42.44-.26.02-.38.03-.64.04zM85.15 115.29c-.25.01-.37.01-.62.02-.29.01-.43-.13-.43-.4.01-1.99.01-2.98.02-4.97 0-.27.15-.42.42-.42l1.95-.05c1.27-.03 2.09.68 2.11 1.75.01.69-.34 1.23-.97 1.53.47.84.71 1.25 1.19 2.09.1.17-.02.37-.23.37-.31.01-.46.01-.76.02-.35.01-.47-.06-.63-.36-.39-.72-.58-1.07-.96-1.79-.27.01-.4.01-.67.02 0 .71 0 1.06.01 1.77 0 .27-.15.42-.43.42zm1.31-4.66c-.36.01-.54.01-.9.02 0 .52 0 .78.01 1.31.36-.01.54-.01.9-.02.37-.01.64-.28.64-.66-.01-.4-.28-.66-.65-.65zM92.18 115.24c-.29 0-.43-.15-.43-.42.01-1.64.02-2.46.03-4.1-.53-.01-.8-.01-1.34-.02-.28 0-.42-.15-.42-.42 0-.18 0-.27.01-.46 0-.27.15-.41.43-.41 1.64.03 2.46.04 4.11.07.28 0 .42.15.43.42v.46c0 .27-.14.41-.42.41-.53-.01-.8-.01-1.34-.02v4.1c0 .27-.15.41-.43.41-.25-.01-.37-.01-.63-.02zM99.46 115.57c-.23-.01-.34-.02-.57-.04-.33-.02-.47-.12-.58-.43-.77-2.07-1.14-3.1-1.87-5.17-.08-.21.06-.39.28-.37l.7.05c.32.02.45.12.56.42.51 1.47.77 2.2 1.3 3.67.58-1.4.86-2.1 1.42-3.5.11-.29.25-.37.57-.35.25.02.37.02.62.04.22.01.35.2.27.41-.8 1.97-1.22 2.95-2.08 4.92-.15.29-.29.37-.62.35zM108.28 105.01c.36.04.61-.11.62-.37.01-.2-.11-.35-.34-.52-.23-.17-.88-.63-1.11-.8-.6-.43-.9-.98-.87-1.59.05-.96.88-1.63 1.98-1.52.53.05 1.06.27 1.46.64.17.16.16.38-.01.56-.05.06-.2.23-.25.29-.18.21-.37.19-.58.02-.24-.19-.47-.3-.68-.32-.33-.03-.53.14-.54.37-.01.21.08.35.34.53.22.17.88.63 1.11.8.61.44.91.99.88 1.58-.05 1.06-.93 1.64-2.07 1.53-.79-.08-1.39-.42-1.81-.85-.21-.21-.2-.41-.01-.61.06-.05.23-.23.29-.28.19-.19.37-.17.58.02.39.33.7.49 1.01.52zM105.33 114.95c.36.03.6-.12.62-.37.01-.2-.11-.35-.34-.52-.23-.16-.86-.63-1.09-.79-.59-.43-.88-.97-.85-1.59.06-.96.88-1.64 1.97-1.54.52.05 1.05.26 1.44.63.16.16.15.38-.01.56-.05.06-.2.23-.25.29-.17.21-.36.2-.58.03-.24-.19-.46-.29-.67-.31-.33-.03-.53.14-.54.37-.01.21.08.35.33.53.23.16.86.63 1.09.79.6.44.89.98.86 1.57-.05 1.06-.93 1.65-2.05 1.55-.78-.07-1.38-.41-1.79-.83-.2-.21-.2-.41 0-.61l.29-.29c.19-.19.37-.17.57.01.38.34.69.49 1 .52zM13.98 98.38c0 .3-.15.46-.46.46h-.67c-.3 0-.46-.16-.46-.46v-4.34l-.65.16c-.27.07-.44-.05-.44-.35v-.49c0-.35.1-.49.43-.59l.55-.17c.28-.09.48-.15.79-.15h.44c.3 0 .46.16.46.46v5.47zM18.57 98.97c-1.6 0-2.5-.89-2.5-1.9 0-.65.36-1.19 1.01-1.52-.58-.31-.9-.82-.9-1.43 0-.96.88-1.8 2.39-1.8s2.38.85 2.38 1.8c0 .61-.32 1.12-.89 1.43.66.33 1.01.88 1.01 1.52-.01 1.01-.91 1.9-2.5 1.9zm0-2.77c-.63 0-.98.36-.98.76s.35.76.98.76.98-.36.98-.76c-.01-.39-.36-.76-.98-.76zm-.87-1.93c0 .36.29.69.87.69.57 0 .87-.34.87-.69 0-.37-.3-.69-.87-.69-.58 0-.87.32-.87.69zM159.46 98.85l-.25-.47c-.14-.26-.05-.47.2-.6.88-.43 1.49-.87 1.81-1.46-.3.23-.68.36-1.08.36-1.28 0-2.1-.86-2.1-2.1 0-1.26.95-2.25 2.57-2.25 1.42 0 2.46.96 2.46 2.48 0 2.09-1.17 3.46-2.99 4.28-.29.11-.48.03-.62-.24zm.11-4.28c0 .52.37.91.97.91.57 0 .97-.4.97-.93s-.39-.91-.97-.91c-.59 0-.97.39-.97.93zM167.05 98.97c-1.6 0-2.5-.89-2.5-1.9 0-.65.36-1.19 1.01-1.52-.58-.31-.9-.82-.9-1.43 0-.96.88-1.8 2.39-1.8 1.5 0 2.38.85 2.38 1.8 0 .61-.32 1.12-.89 1.43.66.33 1.01.88 1.01 1.52 0 1.01-.9 1.9-2.5 1.9zm0-2.77c-.63 0-.98.36-.98.76s.35.76.98.76.98-.36.98-.76c0-.39-.35-.76-.98-.76zm-.86-1.93c0 .36.29.69.87.69.57 0 .87-.34.87-.69 0-.37-.3-.69-.87-.69-.58 0-.87.32-.87.69zM88.84 55.17l-4.06.08c-.11 0-.21.05-.28.13-.07.08-.11.18-.1.29 0 .05.08 1.23.27 1.99.27 1.02 1.05 1.59 2.22 1.59 1.18 0 1.96-.62 2.12-1.69.12-.76.22-1.9.22-1.95a.406.406 0 0 0-.1-.3.354.354 0 0 0-.29-.14zm-.6 2.25c-.1.68-.56 1.03-1.35 1.03-.81 0-1.29-.33-1.46-1-.08-.3-.14-.69-.18-1.04.7-.37 2.27-.5 3.13-.13-.04.37-.09.8-.14 1.14zM95.22 55.19l-4.1-.01c-.1.01-.22.05-.29.13a.37.37 0 0 0-.1.3l.03.32c.07.83.08.86.2 1.64.16 1.07.93 1.68 2.09 1.68h.06c1.17-.02 1.96-.6 2.23-1.63.2-.77.27-1.96.28-2.01a.344.344 0 0 0-.11-.29.374.374 0 0 0-.29-.13zm-.65 2.23c-.18.69-.66 1.03-1.48 1.04-.78.02-1.25-.33-1.36-1.01-.09-.59-.11-.73-.15-1.15.87-.4 2.46-.3 3.17.07-.04.35-.1.74-.18 1.05zM45.94 142.86l.35-.42c-.84-.71-1.76-1.49-2.58-2.28l-.38.4c.38.66.32 1.45-1 2.83l-2.43 2.56c-1.56 1.65-3.64 1.95-5.37.22-1.59-1.59-1.32-3.47.42-5.15l3.03-2.92c1.22-1.17 1.49-1.14 2.19-.64l.4-.38c-1.05-1.07-2.11-2.31-3.06-3.44l-.43.36c.43.74.41 1.03-.83 2.18l-3.21 2.96c-1.98 1.82-2.65 4.79.09 7.53 2.77 2.77 5.71 2.09 7.56.11l2.5-2.67c1.3-1.37 2.04-1.56 2.75-1.25zM58.04 150.99l.26-.49c-1.02-.55-2.02-1.1-3.01-1.7l-.29.48c.51.57.62 1.32-.36 2.96l-2.13 3.57-2.03-9.38c-.17-.78-.3-.95-.5-1.1-.51-.36-1.6-1.18-2.37-1.78l-.33.42c.32.32.37.7.53 1.92.06.34.08.68-.2 1.1l-3.26 4.67c-1.11 1.57-1.75 1.79-2.51 1.54l-.34.43c.94.71 1.89 1.42 2.86 2.08l.32-.44c-.48-.61-.54-1.22.62-2.91l2.87-4.21 2.49 11.56.66.35 4.3-7.27c.98-1.65 1.66-1.95 2.42-1.8zM60.63 152.26c.73.52.79.77.11 2.31l-2.62 5.91c-.68 1.54-.88 1.68-1.76 1.51l-.22.5c1.43.67 2.88 1.29 4.36 1.88l.22-.5c-.73-.52-.76-.75-.11-2.31l2.5-5.96c.65-1.56.88-1.68 1.76-1.51l.2-.51a74.5 74.5 0 0 1-4.22-1.82l-.22.5zM75.56 157.31c.86.43 1.09 1.02.32 1.94l-4.5 5.41-1.36-7.05c-.16-.86.11-1.44.91-1.44l.15-.53c-1.44-.42-3.02-.94-4.64-1.52l-.2.51c.56.45.68.93 1.01 2.46l2.25 10.57.73.19 6.79-8.1c1-1.18 1.65-1.64 2.32-1.72l.08-.55c-1.23-.19-2.47-.43-3.74-.69l-.12.52zM89.32 168.33c-.67.41-1.85.59-3.91.47-1.51-.09-1.6-.13-1.72-.26-.1-.12-.15-.29-.13-.63.07-1.12.2-2.74.33-4.22 2.2.15 2.8.26 3.14.42.55.27.67.57.77 1.02l.58.02.1-3.41-.58-.02c-.14.43-.3.76-.82.92-.64.18-1.36.17-3.08-.01.1-1.21.21-2.23.26-2.57.05-.33.11-.59.25-.72.15-.13.32-.17 1.66-.09 2.39.14 3.06.37 4.42 1.47l.41-.29-.79-2.16c-1.3 0-2.83-.03-4.39-.13-1.86-.11-3.58-.28-4.98-.47l-.08.56c.83.25.99.5.84 2.18l-.61 6.41c-.15 1.68-.36 1.87-1.23 1.98l-.05.54c1.44.18 3.84.4 5.4.5 1.65.1 4.45.18 5.59.15l.76-3.01-.5-.2c-.52.63-1 1.16-1.64 1.55zM106.39 167.46c-1.22.19-2.34-1.52-4.23-3.52 1.99-.7 2.98-2.03 2.76-3.64-.27-2.06-1.98-3.25-5.54-2.69-2.05.33-4.33.48-5.68.56l.03.56c.86.09 1.06.3 1.24 1.98l.61 6.43c.17 1.68 0 1.89-.83 2.16l.06.54c1.08-.06 3.14-.24 4.77-.43l-.06-.54c-.85-.09-1.04-.27-1.23-1.95l-.24-2.08c.4-.07.8-.12 1.22-.18 2.85 3.1 4.11 4.5 6.43 4.14.99-.15 1.64-.72 1.96-1.49l-.47-.32c-.25.27-.45.43-.8.47zm-6.44-3.97c-.72.13-1.43.19-2.03.22l-.54-4.7c.48-.08 1.03-.17 1.56-.24 2.11-.28 3.13.52 3.38 2.04.23 1.46-.56 2.4-2.37 2.68zM113.76 158.92c-2.5.29-3.91.52-4.37-.9-.24-.74.21-1.78 1.78-2.29 1.87-.61 3.33-.04 4.93.95l.41-.35-1.71-2.51-.3.03c-.08.09-.24.23-.43.29-.88.29-1.48-.01-3.18.55-2.29.75-3.85 2.69-3.15 4.85.85 2.58 3.38 2.35 5.69 2.07 2.45-.29 3.79-.53 4.24.86.27.83-.27 1.95-1.89 2.48-2.44.8-4.32.3-6.25-1.08l-.42.33 1.68 2.92.31-.02c.14-.18.36-.35.64-.44 1.14-.37 1.99.09 4.32-.67 2.06-.68 4.06-2.56 3.25-5.03-.8-2.49-3.27-2.31-5.55-2.04zM125.38 158.79l-2.92-5.77c-.76-1.51-.71-1.76-.01-2.31l-.26-.48c-1.35.72-2.73 1.4-4.12 2.03l.23.5c.87-.22 1.1-.11 1.83 1.41l2.81 5.83c.73 1.52.71 1.76.01 2.31l.24.49c1.44-.66 2.85-1.35 4.26-2.1l-.24-.49c-.87.21-1.07.09-1.83-1.42zM134.95 152.94l-4.05-5.77c-.5-.72-.46-.92.09-1.3.91-.63 2.23-.78 4.06-.37l.29-.46-2.53-1.86c-1.19.95-2.4 1.88-4.11 3.06-1.71 1.18-3 1.98-4.31 2.75l.84 3.03.54-.1c.26-1.85.86-3.02 1.77-3.65.55-.38.75-.35 1.25.38l3.95 5.84c.94 1.4.96 1.64.34 2.29l.31.45c1.33-.86 2.63-1.75 3.91-2.7l-.31-.45c-.85.34-1.07.24-2.04-1.14zM145.98 143.36l-1.95-1.88-.58-4.96c-.2-1.78-.24-2.58.02-3.2l-.43-.34c-.79.96-1.72 2.03-2.59 3l.4.37c.76-.55 1.37-.19 1.51 1.01l.46 3.79-3.99-.58c-1.03-.16-1.41-.58-.91-1.19l-.38-.39c-1.1 1.07-2.49 2.35-3.78 3.41l.35.43c.73-.16 1.16-.17 2.19-.04l6.09.81 1.68 1.7c1.19 1.2 1.25 1.43.77 2.18l.39.38c1.14-1.09 2.25-2.21 3.33-3.38l-.39-.38c-.75.49-.98.44-2.19-.74zM19.49 56.03c.32-.09.69-.13 1.13.11l5.01 2.63c1.69.88 2.03 1.55 1.92 2.31l.5.23c.5-1.05 1-2.09 1.55-3.11l-.48-.26c-.54.53-1.29.68-2.98-.22l-4.57-2.43 11.38-2.77.41-.61-7.14-4.47c-1.63-1.03-1.88-1.66-1.66-2.44l-.45-.31c-.67.97-1.33 1.96-1.94 2.96l.46.3c.58-.51 1.19-.6 2.93.48l3.8 2.33L19.82 53c-.77.19-.91.36-1.03.58-.28.52-1.12 2.24-1.5 3.07l.5.23c.23-.34.56-.55 1.7-.85zM30.56 45.28c2.5 2.25 6.32 2.21 8.84-.61 2.53-2.81 2.16-6.61-.34-8.86-2.5-2.25-6.32-2.21-8.84.61-2.53 2.82-2.16 6.61.34 8.86zm.41-8.18c1.43-1.59 3.89-1.48 6.4.77 2.37 2.13 2.73 4.49 1.27 6.12-1.43 1.59-3.89 1.48-6.4-.77-2.38-2.14-2.74-4.48-1.27-6.12zM40.26 30.81l4.03 5.04c1.04 1.33 1.04 1.62.49 2.28l.37.42c1.02-.88 2.24-1.88 3.54-2.88l-.33-.44c-.76.39-1.04.36-2.05-.99l-1.26-1.65c.3-.26.6-.5.92-.76 4.07 1.34 5.83 2.04 7.78.69.82-.57 1.2-1.43 1.16-2.26l-.57-.08c-.1.34-.21.56-.5.76-1.1.78-3.02-.29-5.65-1.16 1.4-1.52 1.65-3.09.69-4.4-1.15-1.56-3.17-2.1-6.55.4-1.37 1.01-3.51 2.76-4.51 3.62l.34.43c.78-.38 1.06-.35 2.1.98zm2.54-4c1.71-1.27 3.04-1.07 3.97.19.88 1.19.69 2.37-.75 3.5-.56.45-1.14.85-1.65 1.21l-2.89-3.79c.38-.36.84-.76 1.32-1.11zM51.09 23.78c.4-1.83 1.09-2.96 2.06-3.54.65-.39.85-.33 1.25.45 1.13 2.16 3.01 5.97 3.37 6.81.43 1.02.3 1.43-.35 1.91l.26.48c1.35-.72 3.01-1.53 4.4-2.16l-.23-.5c-.78.23-1.18.08-1.73-.89-.44-.79-2.32-4.61-3.34-6.82-.37-.79-.29-.99.41-1.26 1.05-.41 2.36-.27 4.06.53l.37-.39-2.04-2.34c-1.63.68-3.26 1.41-4.88 2.21-1.63.8-3.2 1.64-4.73 2.52l.61 3.04.51-.05zM64.45 17.04l1.95 6.16c.5 1.61.38 1.89-.36 2.31l.19.53c1.39-.5 2.94-1.03 4.37-1.45l-.16-.52c-.85.08-1.11-.04-1.58-1.66l-.89-3.03c1.69-.58 3.69-1.12 5.45-1.46l.74 3.07c.41 1.64.24 1.88-.53 2.23l.13.53c1.44-.35 3.05-.68 4.5-.94l-.1-.56c-.86 0-1.1-.17-1.48-1.82l-1.4-6.3c-.38-1.65-.25-1.88.53-2.23l-.11-.54c-1.44.26-3.18.63-4.67.99l.13.53c.86 0 1.07.15 1.47 1.79l.51 2.08c-1.81.54-3.67 1.03-5.51 1.48l-.6-2.05c-.48-1.62-.37-1.86.37-2.28l-.16-.52c-1.47.43-3.17.98-4.54 1.48l.17.52c.85-.08 1.08.05 1.58 1.66zM81.19 13.25l.58 6.42c.14 1.68-.02 1.93-.85 2.18l.08.55c1.4-.19 3.13-.35 4.98-.45 1.62-.09 3.14-.16 4.83-.1l1.04-3-.5-.19c-.56.63-1.11 1.16-1.78 1.54-.61.35-1.28.54-3.23.65-1.34.08-1.52.04-1.66-.09-.13-.13-.19-.4-.24-.72-.07-.48-.24-2.26-.39-4.11 1.74-.18 2.49-.17 3.13 0 .53.17.69.49.82.92l.58-.02-.08-3.41-.58.02c-.1.44-.22.75-.77 1.01-.34.16-.92.27-3.17.41-.09-.98-.16-1.93-.2-2.68-.02-.34.03-.52.14-.63.12-.13.21-.17 1.4-.23 2.64-.15 3.77.04 5.34 1.22l.4-.34-1.04-2.09c-1.46-.01-3.05.05-4.69.14-1.56.09-3.96.3-5.4.48l.05.55c.85.09 1.07.28 1.21 1.97zM96.24 21.58c-.9-.33-1.2-.89-.55-1.89l.92-1.42c.75.09 1.49.17 2.26.28.79.11 1.61.23 2.42.38l.55 1.73c.28.84.06 1.44-.73 1.54l-.09.54c1.48.25 3.11.58 4.79.97l.14-.53c-.61-.38-.8-.85-1.29-2.32l-3.1-9.16c-.2-.63-.31-.77-.68-.82-1.05-.14-2.05-.26-2.99-.36l-.06.53c.4.1.66.22.93.49.41.43.45.61.23.95l-4.5 6.86c-.84 1.27-1.45 1.82-2.1 1.98l-.01.55c1.24.04 2.5.14 3.8.25l.06-.55zm3.38-7.93 1.3 4.1c-.61-.07-1.23-.14-1.86-.22-.6-.08-1.19-.18-1.79-.28l2.35-3.6zM108.56 23.98c1.13.37 1.52 1.21 3.66 1.92 2.06.68 4.79.35 5.6-2.11.83-2.52-1.31-3.84-3.33-5-2.16-1.24-3.38-1.86-2.92-3.26.25-.74 1.24-1.3 2.84-.77 1.88.62 2.73 1.94 3.45 3.71l.54-.04.12-3.04-.26-.15c-.12.02-.33.04-.52-.02-.89-.29-1.22-.9-2.92-1.46-2.31-.77-4.74-.14-5.45 2.01-.83 2.51 1.27 3.83 3.27 4.97 2.18 1.23 3.45 1.85 2.98 3.29-.28.83-1.37 1.41-2.99.87-2.25-.75-3.44-2.24-4.18-4.48l-.53.02-.38 3.35.26.17c.19-.07.48-.07.76.02zM124.19 30.44c-.64-.5-.75-.91-.29-1.92.38-.82 2.38-4.58 3.57-6.7.42-.77.63-.82 1.26-.41.95.61 1.6 1.75 1.95 3.6l.53.07.7-3.02c-1.51-.92-3.05-1.81-4.65-2.66-1.6-.85-3.2-1.63-4.81-2.36l-2.11 2.28.35.4c1.72-.75 3.03-.85 4.07-.4.69.3.76.49.37 1.27-1.09 2.18-3.08 5.94-3.55 6.71-.58.95-.98 1.09-1.75.84l-.24.49c1.37.68 3 1.54 4.33 2.3l.27-.49zM130.18 31.79c-1 1.36-1.28 1.44-2.07 1.08l-.31.47c1.17.78 2.58 1.8 4.04 2.95 1.28 1 2.46 1.95 3.7 3.11l2.76-1.57-.25-.47c-.83.1-1.6.14-2.35-.01-.68-.14-1.32-.44-2.86-1.64-1.06-.83-1.16-.97-1.19-1.17-.01-.19.12-.43.29-.7.26-.41 1.31-1.85 2.42-3.34 1.43 1.02 1.99 1.52 2.35 2.06.28.48.19.82.01 1.23l.45.37 2.19-2.61-.45-.37c-.37.27-.66.41-1.25.25-.36-.1-.87-.41-2.65-1.78.58-.79 1.16-1.55 1.62-2.14.21-.27.37-.37.52-.39.18-.02.27.01 1.2.74 2.08 1.63 2.81 2.52 3.21 4.44l.52.01.59-2.25c-1.09-.97-2.32-1.98-3.61-2.99-1.23-.96-3.17-2.39-4.38-3.21l-.32.44c.58.65.62.94-.39 2.3l-3.79 5.19zM138.15 41.07l-.39.4c.95.95 2.04 2.1 3.14 3.31l.41-.36c-.45-.73-.44-1.01.83-2.12l1.55-1.38c.27.26.55.56.83.86-1.11 4.09-1.69 5.87-.18 7.68.63.78 1.5 1.06 2.32.94l.03-.56c-.35-.07-.58-.16-.8-.44-.84-.99.1-2.92.82-5.57 1.64 1.29 3.23 1.44 4.47.36 1.46-1.27 1.85-3.32-.9-6.5-1.12-1.29-3.02-3.29-3.95-4.23l-.4.37c.44.75.44 1.03-.81 2.17l-4.72 4.4c-1.26 1.15-1.55 1.17-2.25.67zm9.94-4.08c.37.36.81.79 1.2 1.24 1.39 1.61 1.3 2.95.12 3.97-1.12.97-2.31.87-3.54-.49-.49-.52-.93-1.07-1.33-1.56l3.55-3.16zM146.85 51.57l-.46.31c.64.96 1.27 1.94 1.86 2.93l.47-.28c-.18-.74.08-1.46 1.72-2.44l4.44-2.66-3.49 11.18.32.66 7.51-3.82c1.72-.87 2.39-.75 2.94-.17l.5-.22c-.49-1.07-1-2.15-1.54-3.19l-.49.24c.14.76-.1 1.33-1.92 2.27l-3.95 2.05 2.99-9.31c.24-.76.16-.97.04-1.18-.3-.51-1.34-2.12-1.86-2.86l-.45.31c.17.37.17.76-.15 1.89-.09.32-.24.65-.67.91l-4.84 2.94c-1.64.98-2.38.93-2.97.44z" style="fill: rgb(200, 16, 46);"></path></svg>