<?xml version="1.0" encoding="utf-8"?>
<!-- Generator: Adobe Illustrator 24.1.3, SVG Export Plug-In . SVG Version: 6.00 Build 0)  -->
<svg version="1.1" id="Layer_1" xmlns="http://www.w3.org/2000/svg" xmlns:xlink="http://www.w3.org/1999/xlink" x="0px" y="0px"
	 viewBox="0 0 404.5 117.5" enable-background="new 0 0 404.5 117.5" xml:space="preserve">
<g id="g39878" transform="matrix(0.55396467,0,0,0.57246732,56.086901,77.489273)">
	<path id="path39880" fill="#22314E" d="M-48.357-97.8c0,10.887-8.827,19.713-19.714,19.713c-10.886,0-19.712-8.826-19.712-19.713
		c0-10.885,8.827-19.713,19.712-19.713C-57.184-117.513-48.357-108.685-48.357-97.8z"/>
	<path id="path39882" fill="#22314E" d="M-48.357-30.621c0,10.887-8.827,19.713-19.714,19.713c-10.886,0-19.712-8.826-19.712-19.713
		c0-10.887,8.827-19.713,19.712-19.713C-57.184-50.334-48.357-41.508-48.357-30.621z"/>
	<path id="path39884" fill="#22314E" d="M-48.357,36.559c0,10.885-8.827,19.713-19.714,19.713c-10.886,0-19.712-8.828-19.712-19.713
		c0-10.885,8.827-19.713,19.712-19.713C-57.184,16.846-48.357,25.673-48.357,36.559z"/>
	<path id="path39886" fill="#22314E" d="M20.432-30.621c0,10.887-8.827,19.713-19.714,19.713c-10.886,0-19.712-8.826-19.712-19.713
		c0-10.887,8.827-19.713,19.712-19.713C11.605-50.334,20.432-41.508,20.432-30.621z"/>
	<path id="path39888" fill="#22314E" d="M20.432-97.8c0,10.887-8.827,19.713-19.714,19.713c-10.886,0-19.712-8.826-19.712-19.713
		c0-10.885,8.827-19.713,19.712-19.713C11.605-117.513,20.432-108.685,20.432-97.8z"/>
	<path id="path39890" fill="#22314E" d="M89.22-30.621c0,10.887-8.827,19.713-19.714,19.713c-10.886,0-19.712-8.826-19.712-19.713
		c0-10.887,8.827-19.713,19.712-19.713C80.394-50.334,89.22-41.508,89.22-30.621z"/>
	<path id="path39892" fill="#22314E" d="M89.22-97.8c0,10.887-8.827,19.713-19.714,19.713c-10.886,0-19.712-8.826-19.712-19.713
		c0-10.885,8.827-19.713,19.712-19.713C80.394-117.513,89.22-108.685,89.22-97.8z"/>
	<path id="path39894" fill="#22314E" d="M89.22,36.559c0,10.885-8.827,19.713-19.714,19.713c-10.886,0-19.712-8.828-19.712-19.713
		c0-10.885,8.827-19.713,19.712-19.713C80.394,16.846,89.22,25.673,89.22,36.559z"/>
	<path id="path39896" fill="#22314E" d="M20.432,36.559c0,10.885-8.827,19.713-19.714,19.713c-10.886,0-19.712-8.828-19.712-19.713
		c0-10.885,8.827-19.713,19.712-19.713C11.605,16.846,20.432,25.673,20.432,36.559z"/>
	<g enable-background="new    ">
		<path fill="#22314E" d="M239.544-14.812l35.324,70.651h-29.889l-34.336-68.426h-39.029v68.426h-25.443v-172.923h75.835
			c30.137,0,55.579,16.058,55.579,51.63C277.585-37.786,263.012-20.742,239.544-14.812z M222.006-92.628h-50.391v55.583h50.391
			c17.292,0,29.396-8.894,29.396-27.668C251.401-82.747,239.544-92.628,222.006-92.628z"/>
	</g>
	<g enable-background="new    ">
		<path fill="#22314E" d="M382.576,58.558c-44.71,0-73.118-36.809-73.118-89.18s28.408-89.179,73.118-89.179
			c44.958,0,73.365,36.808,73.365,89.179S427.534,58.558,382.576,58.558z M382.576-93.863c-30.136,0-46.686,24.456-46.686,63.241
			c0,38.785,16.55,63.241,46.686,63.241c30.385,0,46.934-24.456,46.934-63.241C429.51-69.407,412.96-93.863,382.576-93.863z"/>
	</g>
	<g enable-background="new    ">
		<path fill="#22314E" d="M545.124,58.558c-25.198,0-46.934-10.87-61.51-27.915l18.528-18.035
			c11.61,12.6,28.653,20.505,44.956,20.505c24.207,0,35.818-8.4,35.818-25.198c0-13.34-10.126-20.01-39.03-28.657
			c-36.558-10.868-54.095-20.008-54.095-50.887c0-29.891,25.195-48.172,57.06-48.172c23.467,0,41.251,8.646,56.567,23.468
			l-18.277,18.528c-10.87-11.116-23.22-16.551-40.264-16.551c-20.259,0-28.904,9.881-28.904,21.492
			c0,12.105,7.905,18.034,37.796,26.926c34.087,10.376,55.333,21.245,55.333,52.124C609.101,37.313,589.34,58.558,545.124,58.558z"
			/>
	</g>
</g>
</svg>
