<?xml version="1.0" encoding="UTF-8" standalone="no"?>
<svg xmlns:cc="http://creativecommons.org/ns#" height="30.832" xmlns:dc="http://purl.org/dc/elements/1.1/" width="150" xmlns="http://www.w3.org/2000/svg" version="1.1" xmlns:rdf="http://www.w3.org/1999/02/22-rdf-syntax-ns#">
 <g transform="translate(-346.74 -463.32)">
  <g transform="matrix(1.8601 0 0 -1.8601 -574.67 1808.3)">
   <path d="m552.71 714.79c0.002 0.069-0.029 0.157-0.089 0.204-0.061 0.049-0.127 0.059-0.192 0.059h-0.333l-2.57-5.824-0.67 3.12c-0.039 0.274-0.259 0.461-0.519 0.446h-0.432l-2.029-3.532 0.02 5.51c0.002 0.074-0.027 0.164-0.092 0.215-0.063 0.052-0.134 0.065-0.205 0.065h-0.433v-6.62h0.552v0.001c0.003 0 0.008-0.001 0.012-0.001 0.162-0.002 0.309 0.039 0.429 0.126 0.109 0.078 0.203 0.187 0.286 0.318l1.776 3.169 0.74-3.613h0.46 0.014c0.302 0 0.555 0.176 0.687 0.476l2.554 5.743c0.018 0.047 0.033 0.078 0.034 0.138m23.281 0.263h-2.732c-1.276-0.003-1.411-1.051-1.417-1.545 0-0.52 0.378-0.934 0.566-1.102l1.86-1.822c0.221-0.217 0.328-0.473 0.328-0.711 0-0.403-0.308-0.733-0.806-0.731-0.001-0.003-2.408-0.004-2.43-0.01-0.079-0.015-0.162-0.118-0.16-0.201h-0.007l0.007-0.003v-0.497h2.704c1.277 0.005 1.411 1.051 1.418 1.545 0 0.002-0.001 0.002-0.001 0.004 0.001 0.684-0.629 1.213-0.633 1.215l-1.764 1.736c-0.22 0.217-0.356 0.44-0.357 0.68 0.001 0.405 0.309 0.733 0.805 0.733 0.003 0.001 2.438 0.003 2.458 0.009l0.006-0.018-0.005 0.018c0.079 0.015 0.163 0.119 0.161 0.201 0 0-0.001 0.001 0 0.002 0 0.004-0.001 0.403-0.001 0.497m-19.498-0.664c-1.214 0.067-2.602-0.648-3.079-2.578-0.47-1.892 0.408-2.811 1.598-2.964l0.124-0.006c1.228-0.065 2.535 0.651 2.995 2.581 0.449 1.893-0.431 2.844-1.638 2.967m2.348-3.024c-0.447-1.882-1.803-3.367-3.968-3.2v0.001c-2.014 0.233-2.591 2.005-2.166 3.703 0.469 1.88 1.82 3.365 3.954 3.2v-0.002c1.987-0.232 2.582-2.006 2.18-3.702m12.055 3.625c-0.056 0.042-0.119 0.05-0.182 0.051h-0.323l-3.407-2.914 0.453 2.575c0.028 0.143-0.041 0.24-0.099 0.281-0.06 0.046-0.135 0.07-0.208 0.07h-0.328l-1.23-6.62h0.728l0.539 2.93 2.698-2.932h0.323c0.064 0.002 0.126 0.011 0.181 0.053 0.056 0.039 0.086 0.117 0.084 0.18 0 0.119-0.097 0.239-0.097 0.239l-2.553 2.774 3.408 2.894s0.096 0.082 0.096 0.239c0.001 0.063-0.027 0.139-0.083 0.18m-6.841-0.942c-0.133 0.129-0.336 0.191-0.65 0.25-0.082 0.015-0.217 0.027-0.37 0.035-0.379 0.021-1.505 0.004-1.85 0.001l-0.436-2.408c0.259-0.004 0.556-0.008 0.765-0.009 0.589 0 1.159 0.019 1.562 0.129 1.037 0.281 1.551 1.457 0.979 2.002m0.669 0.4c0.295-0.335 0.317-0.957 0.233-1.34-0.102-0.468-0.547-1.649-2.215-1.798l1.405-2.407s0.096-0.144 0.096-0.239c0.001-0.063-0.027-0.141-0.084-0.18-0.056-0.042-0.117-0.053-0.18-0.053h-0.371l-1.648 2.84-1.327 0.006-0.515-2.846h-0.729l1.232 6.622h1.701c1.005 0 1.887-0.015 2.402-0.605m-48.958-0.809c-0.083-0.533 0.081-1.159 0.675-1.574l2.116-1.477c0.222-0.153 0.332-0.259 0.305-0.438-0.04-0.247-0.169-0.347-0.608-0.347h-2.461c-0.263 0-0.406-0.129-0.454-0.426v-0.917h2.883c1.264 0 1.889 0.745 2.015 1.537 0.118 0.745-0.132 1.277-0.613 1.62l-2.249 1.596c-0.181 0.13-0.226 0.197-0.213 0.295 0.02 0.162 0.168 0.229 0.424 0.229h2.57c0.314 0 0.493 0.321 0.543 0.639v0.705h-3.398c-0.754 0-1.413-0.674-1.535-1.442m25.616 1.443h-3.564l-0.018-0.107c-0.083-0.449-0.046-0.97 0.665-0.97h2.64c1.045 0 1.445-0.756 1.186-2.175-0.238-1.3-0.938-2.293-2.002-2.293h-1.431l0.679 3.724h-1.217c-0.164 0-0.277-0.119-0.296-0.225l-0.835-4.575h2.791c2.061 0 3.498 0.97 3.943 3.417 0.344 1.88-0.439 3.204-2.541 3.204m-8.461-5.546h-2.813l0.972 5.32c0.018 0.107-0.061 0.225-0.193 0.225h-1.238l-1.209-6.62h4.66l0.121 0.661c0.054 0.297-0.046 0.414-0.3 0.414m3.506 5.546h-1.238l-1.209-6.621h1.472l1.168 6.396c0.02 0.107-0.06 0.225-0.193 0.225m-11.449-1.135c-1.343 0-2.047-0.781-2.299-2.317-0.252-1.539 0.195-2.318 1.538-2.318s2.046 0.779 2.298 2.318c0.253 1.536-0.194 2.317-1.537 2.317m2.999-2.317c-0.309-1.88-1.581-3.454-3.946-3.454-2.367 0-3.122 1.574-2.813 3.454 0.308 1.879 1.581 3.451 3.947 3.451 2.365 0 3.121-1.572 2.812-3.451m-17.2 5.758c-1.407 0.231-3.922 0.32-4.782-0.998-0.664-1.018 0.591-2.413 1.734-3.764 0.916-1.082 1.913-2.116 1.506-2.72-0.332-0.494-2.463-0.493-3.197-0.532-0.891-0.047-2.175-0.05-2.399-0.172-0.201-0.108-0.313-0.444 0.441-0.579 0.606-0.109 2.049-0.33 3.571-0.329 1.589 0 3.258 0.261 3.62 1.491 0.291 0.988-0.718 2.047-1.605 3.121-0.97 1.176-1.954 2.014-1.871 2.847 0.063 0.648 1.334 0.685 3.442 0.722 0.438 0.008 1.311 0.029 1.143 0.375-0.15 0.306-0.803 0.407-1.603 0.538m-6.485-2.933c-0.902 0.619-2.51 0.826-3.834 0.757-1.179-0.062-3.206-0.437-3.13-0.81 0.072-0.403 1.355-0.278 1.943-0.278 1.293 0 3.345-0.079 3.668-0.912 0.697-1.795-4.029-5.018-5.037-4.708-0.456 0.139 0.926 2.482 1.427 3.324 0.298 0.503 0.752 1.293 0.365 1.347-0.433 0.06-0.91-0.684-1.22-1.113-0.841-1.165-1.702-2.437-2.393-3.744-0.214-0.404-0.922-1.619-0.679-1.776 0.227-0.146 1.308 0.062 2.683 0.607 4.322 1.711 6.268 3.941 6.789 5.783 0.183 0.649-0.133 1.215-0.582 1.523m-3.209 7.869c-0.089 0.291 1.353 0.669 2.934 0.739 1.593 0.07 3.477-0.247 3.829-1.298 0.575-1.722-2.342-4.233-4.883-5.467-0.624-0.302-1.001-0.385-1.159-0.364-0.149 0.02-0.173 0.16-0.124 0.256 0.09 0.181 0.501 0.55 1.049 0.951 2.861 2.09 3.791 3.623 3.251 4.244-0.347 0.398-1.797 0.675-3.303 0.675-0.409 0-1.483-0.089-1.594 0.264" fill="#ee2722"/>
  </g>
 </g>
</svg>
