<svg xmlns="http://www.w3.org/2000/svg"  viewBox="0 0 48 48" width="48px" height="48px"><path fill="#dd2c00" d="M24,44L5,36V10l19,6V44z"/><path fill="#a52005" d="M24,44l19-8V10l-19,6V44z"/><path fill="#ff3d00" d="M5,10l19-6l19,6l-19,6L5,10z"/><path fill="#fff" d="M36.538 29.214l1.645-12.583L40 16l-2.438 16.738-1.787.737-2.078-10.928-2.159 12.676L29.653 36 27 20.516l1.987-.69 1.763 11.661 2.135-13.015 1.604-.557L36.538 29.214zM16.855 31.103c0-.324-.036-.626-.109-.905-.073-.279-.206-.56-.399-.841-.193-.281-.458-.577-.794-.889-.336-.311-.766-.664-1.29-1.057-.572-.424-1.097-.864-1.577-1.319-.478-.454-.889-.931-1.232-1.431-.342-.499-.61-1.029-.803-1.59-.193-.561-.289-1.161-.289-1.801 0-.633.1-1.182.301-1.649.201-.468.485-.838.852-1.111.368-.273.809-.438 1.326-.492.519-.055 1.094.017 1.728.215.68.213 1.295.536 1.842.969.549.434 1.014.937 1.395 1.508.382.573.675 1.19.88 1.852.205.663.307 1.332.307 2.007l-2.137-.707c0-.39-.046-.764-.139-1.122-.092-.357-.234-.686-.424-.987-.19-.3-.43-.563-.719-.788-.289-.225-.629-.4-1.022-.526-.369-.119-.688-.167-.957-.144-.268.023-.491.103-.668.242-.177.138-.308.328-.392.569-.084.24-.126.516-.126.828 0 .587.208 1.145.625 1.676.418.533 1.059 1.112 1.925 1.741.682.495 1.276.99 1.779 1.485.505.497.926 1.009 1.263 1.534.337.527.588 1.077.753 1.649C18.917 30.592 19 31.201 19 31.846c0 .682-.104 1.258-.312 1.727-.207.469-.502.823-.884 1.063-.381.24-.84.36-1.378.363-.536.003-1.131-.118-1.784-.361-.579-.215-1.147-.531-1.704-.945-.555-.413-1.051-.907-1.489-1.484-.436-.575-.787-1.22-1.052-1.935C10.132 29.562 10 28.789 10 27.956l2.041.723c0 .499.066.951.199 1.357.133.406.315.765.546 1.077.232.313.506.579.824.8.318.221.662.4 1.032.534.731.266 1.283.271 1.654.014C16.668 32.204 16.855 31.75 16.855 31.103z"/></svg>